<?xml version="1.0" encoding="UTF-8" standalone="no"?>
<!DOCTYPE svg PUBLIC "-//W3C//DTD SVG 1.1//EN"
 "http://www.w3.org/Graphics/SVG/1.1/DTD/svg11.dtd">
<!-- Generated by graphviz version 2.38.0 (20140413.2041)
 -->
<!-- Title: G Pages: 1 -->
<svg width="1711pt" height="332pt"
 viewBox="0.00 0.00 1710.63 332.00" xmlns="http://www.w3.org/2000/svg" xmlns:xlink="http://www.w3.org/1999/xlink">
<g id="graph0" class="graph" transform="scale(1 1) rotate(0) translate(4 328)">
<title>G</title>
<polygon fill="white" stroke="none" points="-4,4 -4,-328 1706.63,-328 1706.63,4 -4,4"/>
<!-- Smart Power Grid -->
<g id="node1" class="node"><title>Smart Power Grid</title>
<polygon fill="none" stroke="black" points="367.461,-324 258.201,-306 367.461,-288 476.721,-306 367.461,-324"/>
<polyline fill="none" stroke="black" points="270.042,-307.951 270.042,-304.049 "/>
<polyline fill="none" stroke="black" points="355.621,-289.951 379.301,-289.951 "/>
<polyline fill="none" stroke="black" points="464.88,-304.049 464.88,-307.951 "/>
<polyline fill="none" stroke="black" points="379.301,-322.049 355.621,-322.049 "/>
<text text-anchor="middle" x="367.461" y="-302.3" font-family="Times New Roman,serif" font-size="14.00">Smart Power Grid</text>
</g>
<!-- MS -->
<g id="node2" class="node"><title>MS</title>
<ellipse fill="none" stroke="black" cx="340.461" cy="-234" rx="27" ry="18"/>
<text text-anchor="middle" x="340.461" y="-230.3" font-family="Times New Roman,serif" font-size="14.00">MS</text>
</g>
<!-- Smart Power Grid&#45;&gt;MS -->
<g id="edge17" class="edge"><title>Smart Power Grid&#45;&gt;MS</title>
<path fill="none" stroke="black" d="M361.199,-288.765C358.041,-280.578 354.134,-270.448 350.565,-261.195"/>
<polygon fill="black" stroke="black" points="353.741,-259.704 346.877,-251.633 347.21,-262.223 353.741,-259.704"/>
</g>
<!-- WebAccess -->
<g id="node3" class="node"><title>WebAccess</title>
<ellipse fill="none" stroke="black" cx="459.461" cy="-162" rx="55.4913" ry="18"/>
<text text-anchor="middle" x="459.461" y="-158.3" font-family="Times New Roman,serif" font-size="14.00">WebAccess</text>
</g>
<!-- Smart Power Grid&#45;&gt;WebAccess -->
<g id="edge28" class="edge"><title>Smart Power Grid&#45;&gt;WebAccess</title>
<path fill="none" stroke="black" d="M375.938,-289.227C385.812,-271.168 402.893,-240.872 419.461,-216 425.757,-206.548 433.131,-196.522 439.821,-187.764"/>
<polygon fill="black" stroke="black" points="442.619,-189.867 445.968,-179.815 437.082,-185.584 442.619,-189.867"/>
</g>
<!-- Oracle -->
<g id="node4" class="node"><title>Oracle</title>
<ellipse fill="none" stroke="black" cx="187.461" cy="-90" rx="34.394" ry="18"/>
<text text-anchor="middle" x="187.461" y="-86.3" font-family="Times New Roman,serif" font-size="14.00">Oracle</text>
</g>
<!-- Smart Power Grid&#45;&gt;Oracle -->
<g id="edge14" class="edge"><title>Smart Power Grid&#45;&gt;Oracle</title>
<path fill="none" stroke="black" d="M349.143,-290.881C336.199,-280.6 318.692,-266.068 304.461,-252 274.429,-222.312 267.416,-214.067 242.461,-180 227.379,-159.411 212.285,-134.612 201.734,-116.427"/>
<polygon fill="black" stroke="black" points="204.669,-114.509 196.656,-107.577 198.598,-117.993 204.669,-114.509"/>
</g>
<!-- Cisco -->
<g id="node5" class="node"><title>Cisco</title>
<ellipse fill="none" stroke="black" cx="90.461" cy="-162" rx="32.4942" ry="18"/>
<text text-anchor="middle" x="90.461" y="-158.3" font-family="Times New Roman,serif" font-size="14.00">Cisco</text>
</g>
<!-- Smart Power Grid&#45;&gt;Cisco -->
<g id="edge4" class="edge"><title>Smart Power Grid&#45;&gt;Cisco</title>
<path fill="none" stroke="black" d="M314.759,-296.633C276.703,-288.995 225.078,-275.255 184.461,-252 154.806,-235.021 127.217,-206.814 109.702,-186.707"/>
<polygon fill="black" stroke="black" points="112.206,-184.25 103.057,-178.908 106.878,-188.79 112.206,-184.25"/>
</g>
<!-- Linux -->
<g id="node9" class="node"><title>Linux</title>
<ellipse fill="none" stroke="black" cx="492.461" cy="-234" rx="31.3957" ry="18"/>
<text text-anchor="middle" x="492.461" y="-230.3" font-family="Times New Roman,serif" font-size="14.00">Linux</text>
</g>
<!-- Smart Power Grid&#45;&gt;Linux -->
<g id="edge16" class="edge"><title>Smart Power Grid&#45;&gt;Linux</title>
<path fill="none" stroke="black" d="M390.973,-291.834C411.022,-280.606 439.984,-264.387 461.842,-252.147"/>
<polygon fill="black" stroke="black" points="463.713,-255.11 470.728,-247.171 460.293,-249.003 463.713,-255.11"/>
</g>
<!-- SQL -->
<g id="node15" class="node"><title>SQL</title>
<ellipse fill="none" stroke="black" cx="1432.46" cy="-162" rx="28.6953" ry="18"/>
<text text-anchor="middle" x="1432.46" y="-158.3" font-family="Times New Roman,serif" font-size="14.00">SQL</text>
</g>
<!-- Smart Power Grid&#45;&gt;SQL -->
<g id="edge125" class="edge"><title>Smart Power Grid&#45;&gt;SQL</title>
<path fill="none" stroke="black" d="M382.166,-290.281C392.655,-279.718 407.042,-265.094 419.461,-252 434.397,-236.251 432.837,-225.273 452.461,-216 474.126,-205.762 1214.85,-172.574 1393.83,-164.691"/>
<polygon fill="black" stroke="black" points="1394.01,-168.187 1403.84,-164.251 1393.7,-161.193 1394.01,-168.187"/>
</g>
<!-- MS&#45;&gt;WebAccess -->
<g id="edge1" class="edge"><title>MS&#45;&gt;WebAccess</title>
<path fill="none" stroke="black" d="M360.111,-221.441C377.787,-211.044 404.145,-195.539 425.271,-183.112"/>
<polygon fill="black" stroke="black" points="427.12,-186.085 433.964,-177.998 423.571,-180.051 427.12,-186.085"/>
</g>
<!-- MS&#45;&gt;Oracle -->
<g id="edge2" class="edge"><title>MS&#45;&gt;Oracle</title>
<path fill="none" stroke="black" d="M325.231,-218.865C298.474,-194.032 242.857,-142.413 211.079,-112.92"/>
<polygon fill="black" stroke="black" points="213.256,-110.165 203.545,-105.928 208.494,-115.296 213.256,-110.165"/>
</g>
<!-- 其他 -->
<g id="node6" class="node"><title>其他</title>
<ellipse fill="none" stroke="black" cx="1053.46" cy="-18" rx="27.0966" ry="18"/>
<text text-anchor="middle" x="1053.46" y="-14.3" font-family="Times New Roman,serif" font-size="14.00">其他</text>
</g>
<!-- MS&#45;&gt;其他 -->
<g id="edge24" class="edge"><title>MS&#45;&gt;其他</title>
<path fill="none" stroke="black" d="M313.187,-231.8C246.809,-228.145 80.4846,-215.166 40.461,-180 3.59344,-147.607 -16.3352,-107.585 17.461,-72 52.3818,-35.2306 834.403,-21.9792 1016.07,-19.4647"/>
<polygon fill="black" stroke="black" points="1016.24,-22.9627 1026.2,-19.3271 1016.15,-15.9633 1016.24,-22.9627"/>
</g>
<!-- MS&#45;&gt;其他 -->
<g id="edge25" class="edge"><title>MS&#45;&gt;其他</title>
<path fill="none" stroke="black" d="M313.613,-231.271C250.619,-226.977 96.7486,-213.64 58.461,-180 21.5934,-147.607 1.66479,-107.585 35.461,-72 70.0239,-35.6074 836.453,-22.2533 1016.09,-19.5454"/>
<polygon fill="black" stroke="black" points="1016.17,-23.0447 1026.12,-19.3961 1016.06,-16.0455 1016.17,-23.0447"/>
</g>
<!-- 注入 -->
<g id="node10" class="node"><title>注入</title>
<ellipse fill="none" stroke="black" cx="1432.46" cy="-90" rx="27.0966" ry="18"/>
<text text-anchor="middle" x="1432.46" y="-86.3" font-family="Times New Roman,serif" font-size="14.00">注入</text>
</g>
<!-- MS&#45;&gt;注入 -->
<g id="edge18" class="edge"><title>MS&#45;&gt;注入</title>
<path fill="none" stroke="black" d="M362.381,-223.341C373.124,-220.717 385.755,-218.041 397.461,-216 783.932,-148.625 1259.25,-104.57 1395.06,-93.6541"/>
<polygon fill="black" stroke="black" points="1395.65,-97.1188 1405.34,-92.8404 1395.09,-90.1406 1395.65,-97.1188"/>
</g>
<!-- MS&#45;&gt;注入 -->
<g id="edge26" class="edge"><title>MS&#45;&gt;注入</title>
<path fill="none" stroke="black" d="M365.334,-226.701C379.875,-223.185 398.625,-218.935 415.461,-216 795.96,-149.666 1262.58,-105.937 1395.54,-94.1838"/>
<polygon fill="black" stroke="black" points="1395.95,-97.6618 1405.6,-93.2995 1395.33,-90.6887 1395.95,-97.6618"/>
</g>
<!-- MS&#45;&gt;注入 -->
<g id="edge27" class="edge"><title>MS&#45;&gt;注入</title>
<path fill="none" stroke="black" d="M366.749,-229.585C386.574,-225.824 411.627,-219.806 433.461,-216 807.135,-150.856 1263.87,-107.513 1395.67,-94.847"/>
<polygon fill="black" stroke="black" points="1396.03,-98.3281 1405.65,-93.8857 1395.36,-91.3603 1396.03,-98.3281"/>
</g>
<!-- 溢出 -->
<g id="node11" class="node"><title>溢出</title>
<ellipse fill="none" stroke="black" cx="340.461" cy="-90" rx="27.0966" ry="18"/>
<text text-anchor="middle" x="340.461" y="-86.3" font-family="Times New Roman,serif" font-size="14.00">溢出</text>
</g>
<!-- MS&#45;&gt;溢出 -->
<g id="edge19" class="edge"><title>MS&#45;&gt;溢出</title>
<path fill="none" stroke="black" d="M323.876,-219.641C311.464,-195.431 310.146,-144.043 319.921,-114.06"/>
<polygon fill="black" stroke="black" points="323.314,-115.009 323.842,-104.427 316.83,-112.37 323.314,-115.009"/>
</g>
<!-- MS&#45;&gt;溢出 -->
<g id="edge20" class="edge"><title>MS&#45;&gt;溢出</title>
<path fill="none" stroke="black" d="M331.534,-216.987C326.114,-192.698 325.512,-146.286 329.728,-117.081"/>
<polygon fill="black" stroke="black" points="333.184,-117.632 331.499,-107.173 326.294,-116.401 333.184,-117.632"/>
</g>
<!-- MS&#45;&gt;溢出 -->
<g id="edge21" class="edge"><title>MS&#45;&gt;溢出</title>
<path fill="none" stroke="black" d="M340.461,-215.871C340.461,-191.67 340.461,-147.211 340.461,-118.393"/>
<polygon fill="black" stroke="black" points="343.961,-118.189 340.461,-108.189 336.961,-118.189 343.961,-118.189"/>
</g>
<!-- MS&#45;&gt;溢出 -->
<g id="edge22" class="edge"><title>MS&#45;&gt;溢出</title>
<path fill="none" stroke="black" d="M349.388,-216.987C354.808,-192.698 355.41,-146.286 351.194,-117.081"/>
<polygon fill="black" stroke="black" points="354.628,-116.401 349.423,-107.173 347.738,-117.632 354.628,-116.401"/>
</g>
<!-- MS&#45;&gt;溢出 -->
<g id="edge23" class="edge"><title>MS&#45;&gt;溢出</title>
<path fill="none" stroke="black" d="M357.046,-219.641C369.458,-195.431 370.776,-144.043 361.001,-114.06"/>
<polygon fill="black" stroke="black" points="364.092,-112.37 357.08,-104.427 357.608,-115.009 364.092,-112.37"/>
</g>
<!-- WebAccess&#45;&gt;Oracle -->
<g id="edge3" class="edge"><title>WebAccess&#45;&gt;Oracle</title>
<path fill="none" stroke="black" d="M412.665,-152.125C366.214,-142.848 293.218,-127.006 231.461,-108 228.837,-107.192 226.145,-106.305 223.448,-105.372"/>
<polygon fill="black" stroke="black" points="224.369,-101.982 213.775,-101.857 221.978,-108.561 224.369,-101.982"/>
</g>
<!-- WebAccess&#45;&gt;其他 -->
<g id="edge31" class="edge"><title>WebAccess&#45;&gt;其他</title>
<path fill="none" stroke="black" d="M404.028,-160.692C152.849,-157.641 282.41,-132.471 386.461,-108 533.682,-73.3758 714.451,-23.1787 1015.49,-19.2462"/>
<polygon fill="black" stroke="black" points="1015.83,-22.7426 1025.79,-19.1302 1015.75,-15.743 1015.83,-22.7426"/>
</g>
<!-- WebAccess&#45;&gt;其他 -->
<g id="edge41" class="edge"><title>WebAccess&#45;&gt;其他</title>
<path fill="none" stroke="black" d="M404.261,-160.652C171.928,-157.431 300.844,-132.369 404.461,-108 551.387,-73.4451 731.728,-23.3796 1015.84,-19.2703"/>
<polygon fill="black" stroke="black" points="1016.03,-22.7683 1025.99,-19.1436 1015.94,-15.7688 1016.03,-22.7683"/>
</g>
<!-- WebAccess&#45;&gt;其他 -->
<g id="edge48" class="edge"><title>WebAccess&#45;&gt;其他</title>
<path fill="none" stroke="black" d="M404.227,-160.6C191.276,-157.169 319.386,-132.242 422.461,-108 568.947,-73.5488 748.646,-23.6799 1015.58,-19.3085"/>
<polygon fill="black" stroke="black" points="1015.97,-22.8035 1025.92,-19.1626 1015.87,-15.8042 1015.97,-22.8035"/>
</g>
<!-- WebAccess&#45;&gt;其他 -->
<g id="edge49" class="edge"><title>WebAccess&#45;&gt;其他</title>
<path fill="none" stroke="black" d="M404.397,-160.538C210.757,-156.881 337.982,-132.102 440.461,-108 586.579,-73.6353 765.743,-23.9303 1015.99,-19.3423"/>
<polygon fill="black" stroke="black" points="1016.11,-22.8409 1026.06,-19.1828 1016,-15.8418 1016.11,-22.8409"/>
</g>
<!-- WebAccess&#45;&gt;其他 -->
<g id="edge50" class="edge"><title>WebAccess&#45;&gt;其他</title>
<path fill="none" stroke="black" d="M404.292,-160.454C230.64,-156.514 356.741,-131.923 458.461,-108 604.065,-73.7561 782.484,-24.2795 1015.93,-19.3924"/>
<polygon fill="black" stroke="black" points="1016.09,-22.8902 1026.02,-19.2096 1015.96,-15.8913 1016.09,-22.8902"/>
</g>
<!-- WebAccess&#45;&gt;其他 -->
<g id="edge51" class="edge"><title>WebAccess&#45;&gt;其他</title>
<path fill="none" stroke="black" d="M404.163,-160.341C250.922,-156.068 375.662,-131.706 476.461,-108 621.478,-73.894 799.047,-24.6779 1015.88,-19.4536"/>
<polygon fill="black" stroke="black" points="1015.98,-22.9524 1025.9,-19.2441 1015.83,-15.9539 1015.98,-22.9524"/>
</g>
<!-- WebAccess&#45;&gt;其他 -->
<g id="edge53" class="edge"><title>WebAccess&#45;&gt;其他</title>
<path fill="none" stroke="black" d="M404.262,-160.197C271.602,-155.545 394.746,-131.452 494.461,-108 638.821,-74.0486 815.438,-25.1238 1015.9,-19.5274"/>
<polygon fill="black" stroke="black" points="1016.16,-23.0222 1026.08,-19.2813 1016,-16.0242 1016.16,-23.0222"/>
</g>
<!-- WebAccess&#45;&gt;其他 -->
<g id="edge55" class="edge"><title>WebAccess&#45;&gt;其他</title>
<path fill="none" stroke="black" d="M404.282,-159.988C293.077,-154.864 414.155,-131.12 512.461,-108 656.018,-74.2375 831.474,-25.6677 1015.78,-19.6248"/>
<polygon fill="black" stroke="black" points="1016.07,-23.1182 1025.96,-19.3348 1015.87,-16.121 1016.07,-23.1182"/>
</g>
<!-- WebAccess&#45;&gt;其他 -->
<g id="edge60" class="edge"><title>WebAccess&#45;&gt;其他</title>
<path fill="none" stroke="black" d="M404.455,-159.68C315.608,-153.974 433.997,-130.687 530.461,-108 673.217,-74.426 847.516,-26.2095 1016.16,-19.73"/>
<polygon fill="black" stroke="black" points="1016.36,-23.2255 1026.24,-19.3929 1016.12,-16.2294 1016.36,-23.2255"/>
</g>
<!-- WebAccess&#45;&gt;其他 -->
<g id="edge61" class="edge"><title>WebAccess&#45;&gt;其他</title>
<path fill="none" stroke="black" d="M404.827,-159.181C339.977,-152.719 454.599,-130.075 548.461,-108 690.127,-74.6824 862.856,-26.945 1016.1,-19.8857"/>
<polygon fill="black" stroke="black" points="1016.31,-23.38 1026.16,-19.4801 1016.03,-16.3857 1016.31,-23.38"/>
</g>
<!-- WebAccess&#45;&gt;其他 -->
<g id="edge63" class="edge"><title>WebAccess&#45;&gt;其他</title>
<path fill="none" stroke="black" d="M405.256,-158.128C369.046,-150.524 477.151,-129.004 566.461,-108 706.68,-75.0226 877.332,-27.9184 1015.62,-20.1146"/>
<polygon fill="black" stroke="black" points="1016.13,-23.5939 1025.95,-19.6034 1015.78,-16.6025 1016.13,-23.5939"/>
</g>
<!-- WebAccess&#45;&gt;其他 -->
<g id="edge66" class="edge"><title>WebAccess&#45;&gt;其他</title>
<path fill="none" stroke="black" d="M410.928,-153.29C422.219,-143.434 509.891,-125.538 584.461,-108 723.233,-75.3629 891.813,-28.889 1015.98,-20.3687"/>
<polygon fill="black" stroke="black" points="1016.2,-23.8618 1025.97,-19.761 1015.78,-16.8748 1016.2,-23.8618"/>
</g>
<!-- WebAccess&#45;&gt;其他 -->
<g id="edge67" class="edge"><title>WebAccess&#45;&gt;其他</title>
<path fill="none" stroke="black" d="M448.841,-144.288C484.217,-134.301 546.967,-121.051 602.461,-108 739.224,-75.8352 904.939,-30.2315 1015.79,-20.7623"/>
<polygon fill="black" stroke="black" points="1016.3,-24.2334 1026,-19.9826 1015.77,-17.2537 1016.3,-24.2334"/>
</g>
<!-- WebAccess&#45;&gt;其他 -->
<g id="edge69" class="edge"><title>WebAccess&#45;&gt;其他</title>
<path fill="none" stroke="black" d="M465.477,-144.054C503.197,-134.094 565.401,-120.949 620.461,-108 754.938,-76.3729 917.407,-31.7523 1016.03,-21.2672"/>
<polygon fill="black" stroke="black" points="1016.64,-24.725 1026.26,-20.2844 1015.97,-17.7571 1016.64,-24.725"/>
</g>
<!-- WebAccess&#45;&gt;其他 -->
<g id="edge71" class="edge"><title>WebAccess&#45;&gt;其他</title>
<path fill="none" stroke="black" d="M477.575,-144.985C517.272,-134.922 581.667,-121.357 638.461,-108 770.09,-77.0427 928.538,-33.6365 1016.29,-21.9789"/>
<polygon fill="black" stroke="black" points="1016.87,-25.4338 1026.37,-20.7463 1016.02,-18.4855 1016.87,-25.4338"/>
</g>
<!-- WebAccess&#45;&gt;其他 -->
<g id="edge87" class="edge"><title>WebAccess&#45;&gt;其他</title>
<path fill="none" stroke="black" d="M487.52,-146.346C529.357,-136.166 597.065,-121.969 656.461,-108 784.413,-77.9075 937.706,-36.052 1016.31,-23.0293"/>
<polygon fill="black" stroke="black" points="1017.09,-26.4495 1026.43,-21.4532 1016.02,-19.5328 1017.09,-26.4495"/>
</g>
<!-- WebAccess&#45;&gt;其他 -->
<g id="edge89" class="edge"><title>WebAccess&#45;&gt;其他</title>
<path fill="none" stroke="black" d="M495.192,-148.087C539.421,-137.824 611.597,-122.785 674.461,-108 798.323,-78.8694 945.933,-38.7156 1017.05,-24.365"/>
<polygon fill="black" stroke="black" points="1017.83,-27.7799 1026.98,-22.4394 1016.5,-20.908 1017.83,-27.7799"/>
</g>
<!-- WebAccess&#45;&gt;其他 -->
<g id="edge91" class="edge"><title>WebAccess&#45;&gt;其他</title>
<path fill="none" stroke="black" d="M500.912,-150.041C547.924,-139.796 625.478,-123.753 692.461,-108 811.268,-80.0583 951.923,-41.9749 1017.59,-26.2486"/>
<polygon fill="black" stroke="black" points="1018.54,-29.6208 1027.47,-23.9215 1016.94,-22.8072 1018.54,-29.6208"/>
</g>
<!-- WebAccess&#45;&gt;其他 -->
<g id="edge97" class="edge"><title>WebAccess&#45;&gt;其他</title>
<path fill="none" stroke="black" d="M505.403,-151.956C555.84,-141.874 639.143,-124.773 710.461,-108 823.684,-81.3716 956.75,-45.5323 1018.6,-28.6108"/>
<polygon fill="black" stroke="black" points="1019.88,-31.8886 1028.6,-25.8694 1018.03,-25.1376 1019.88,-31.8886"/>
</g>
<!-- WebAccess&#45;&gt;其他 -->
<g id="edge98" class="edge"><title>WebAccess&#45;&gt;其他</title>
<path fill="none" stroke="black" d="M508.878,-153.715C563.668,-143.954 652.808,-125.793 728.461,-108 836.083,-82.6888 961.634,-49.0556 1020.68,-31.2575"/>
<polygon fill="black" stroke="black" points="1022.04,-34.5015 1030.58,-28.2281 1019.99,-27.808 1022.04,-34.5015"/>
</g>
<!-- WebAccess&#45;&gt;其他 -->
<g id="edge100" class="edge"><title>WebAccess&#45;&gt;其他</title>
<path fill="none" stroke="black" d="M511.068,-155.309C571.407,-146.037 666.472,-126.812 746.461,-108 848.999,-83.8846 967.811,-52.215 1024.49,-33.8835"/>
<polygon fill="black" stroke="black" points="1025.62,-37.1971 1034.01,-30.7304 1023.42,-30.5521 1025.62,-37.1971"/>
</g>
<!-- WebAccess&#45;&gt;其他 -->
<g id="edge103" class="edge"><title>WebAccess&#45;&gt;其他</title>
<path fill="none" stroke="black" d="M512.457,-156.627C579.837,-147.966 680.462,-127.755 764.461,-108 861.994,-85.0616 974.252,-55.2883 1029.12,-36.6604"/>
<polygon fill="black" stroke="black" points="1030.4,-39.9217 1038.68,-33.3161 1028.09,-33.3143 1030.4,-39.9217"/>
</g>
<!-- WebAccess&#45;&gt;其他 -->
<g id="edge104" class="edge"><title>WebAccess&#45;&gt;其他</title>
<path fill="none" stroke="black" d="M513.191,-157.67C589.237,-149.688 694.885,-128.597 782.461,-108 876.135,-85.9692 983.391,-57.6338 1036.24,-38.9229"/>
<polygon fill="black" stroke="black" points="1037.57,-42.1599 1045.76,-35.4294 1035.16,-35.5883 1037.57,-42.1599"/>
</g>
<!-- WebAccess&#45;&gt;其他 -->
<g id="edge105" class="edge"><title>WebAccess&#45;&gt;其他</title>
<path fill="none" stroke="black" d="M513.909,-158.425C600.157,-151.098 709.959,-129.285 800.461,-108 893.185,-86.1926 999.218,-58.2077 1048.63,-39.495"/>
<polygon fill="black" stroke="black" points="1050.01,-42.7114 1058.01,-35.7645 1047.43,-36.2066 1050.01,-42.7114"/>
</g>
<!-- WebAccess&#45;&gt;其他 -->
<g id="edge106" class="edge"><title>WebAccess&#45;&gt;其他</title>
<path fill="none" stroke="black" d="M514.248,-158.997C612.093,-152.3 725.466,-129.871 818.461,-108 925.883,-82.736 1051.17,-49.1809 1079.39,-31.3572"/>
<polygon fill="black" stroke="black" points="1082.87,-31.7067 1080.66,-21.3454 1075.93,-30.8245 1082.87,-31.7067"/>
</g>
<!-- WebAccess&#45;&gt;其他 -->
<g id="edge109" class="edge"><title>WebAccess&#45;&gt;其他</title>
<path fill="none" stroke="black" d="M514.464,-159.419C625.062,-153.294 741.406,-130.355 836.461,-108 965.629,-77.6216 1120.62,-35.2554 1090.88,-22.6659"/>
<polygon fill="black" stroke="black" points="1091.4,-19.194 1080.86,-20.3384 1089.81,-26.0122 1091.4,-19.194"/>
</g>
<!-- WebAccess&#45;&gt;其他 -->
<g id="edge110" class="edge"><title>WebAccess&#45;&gt;其他</title>
<path fill="none" stroke="black" d="M514.478,-159.737C638.81,-154.131 757.672,-130.763 854.461,-108 989.731,-76.1866 1153.32,-31.2262 1091.04,-21.0855"/>
<polygon fill="black" stroke="black" points="1091.06,-17.5647 1080.72,-19.8907 1090.25,-24.5182 1091.06,-17.5647"/>
</g>
<!-- WebAccess&#45;&gt;其他 -->
<g id="edge112" class="edge"><title>WebAccess&#45;&gt;其他</title>
<path fill="none" stroke="black" d="M514.578,-159.971C653.344,-154.812 774.263,-131.095 872.461,-108 1010.98,-75.4218 1179.2,-29.0568 1090.87,-20.4152"/>
<polygon fill="black" stroke="black" points="1091.09,-16.9215 1080.85,-19.6604 1090.56,-23.9017 1091.09,-16.9215"/>
</g>
<!-- WebAccess&#45;&gt;其他 -->
<g id="edge114" class="edge"><title>WebAccess&#45;&gt;其他</title>
<path fill="none" stroke="black" d="M514.589,-160.151C668.405,-155.388 791.071,-131.375 890.461,-108 1030.99,-74.9504 1202.08,-27.7121 1091.01,-20.0639"/>
<polygon fill="black" stroke="black" points="1091.15,-16.566 1080.97,-19.5139 1090.76,-23.5556 1091.15,-16.566"/>
</g>
<!-- WebAccess&#45;&gt;其他 -->
<g id="edge116" class="edge"><title>WebAccess&#45;&gt;其他</title>
<path fill="none" stroke="black" d="M514.466,-160.292C683.86,-155.885 808.041,-131.617 908.461,-108 1050.57,-74.5769 1223.95,-26.6428 1090.8,-19.8199"/>
<polygon fill="black" stroke="black" points="1090.82,-16.3176 1080.68,-19.4004 1090.53,-23.3116 1090.82,-16.3176"/>
</g>
<!-- WebAccess&#45;&gt;其他 -->
<g id="edge117" class="edge"><title>WebAccess&#45;&gt;其他</title>
<path fill="none" stroke="black" d="M514.685,-160.395C699.848,-156.278 825.228,-131.808 926.461,-108 1069.66,-74.3215 1244.6,-25.9091 1091.03,-19.6707"/>
<polygon fill="black" stroke="black" points="1091.06,-16.1698 1080.94,-19.3348 1090.82,-23.1659 1091.06,-16.1698"/>
</g>
<!-- WebAccess&#45;&gt;其他 -->
<g id="edge118" class="edge"><title>WebAccess&#45;&gt;其他</title>
<path fill="none" stroke="black" d="M514.544,-160.485C715.968,-156.645 842.47,-131.987 944.461,-108 1088.61,-74.0988 1264.92,-25.2683 1090.98,-19.5525"/>
<polygon fill="black" stroke="black" points="1090.82,-16.0471 1080.73,-19.2749 1090.63,-23.0446 1090.82,-16.0471"/>
</g>
<!-- WebAccess&#45;&gt;其他 -->
<g id="edge120" class="edge"><title>WebAccess&#45;&gt;其他</title>
<path fill="none" stroke="black" d="M514.789,-160.55C732.488,-156.933 859.874,-132.127 962.461,-108 1107.34,-73.9274 1284.7,-24.7744 1091.12,-19.4691"/>
<polygon fill="black" stroke="black" points="1091.08,-15.9673 1081,-19.2382 1090.92,-22.9654 1091.08,-15.9673"/>
</g>
<!-- WebAccess&#45;&gt;其他 -->
<g id="edge121" class="edge"><title>WebAccess&#45;&gt;其他</title>
<path fill="none" stroke="black" d="M514.891,-160.605C749.142,-157.195 877.332,-132.254 980.461,-108 1125.99,-73.7727 1304.31,-24.3274 1091.06,-19.3995"/>
<polygon fill="black" stroke="black" points="1091.02,-15.8981 1080.95,-19.2041 1090.88,-22.8968 1091.02,-15.8981"/>
</g>
<!-- WebAccess&#45;&gt;其他 -->
<g id="edge122" class="edge"><title>WebAccess&#45;&gt;其他</title>
<path fill="none" stroke="black" d="M514.913,-160.652C765.928,-157.431 894.844,-132.369 998.461,-108 1144.51,-73.6519 1323.57,-23.9785 1091.23,-19.349"/>
<polygon fill="black" stroke="black" points="1091.02,-15.8451 1080.96,-19.1776 1090.9,-22.8442 1091.02,-15.8451"/>
</g>
<!-- WebAccess&#45;&gt;其他 -->
<g id="edge123" class="edge"><title>WebAccess&#45;&gt;其他</title>
<path fill="none" stroke="black" d="M514.924,-160.692C782.849,-157.641 912.41,-132.471 1016.46,-108 1163.02,-73.531 1342.83,-23.6286 1091.04,-19.3018"/>
<polygon fill="black" stroke="black" points="1090.76,-15.7976 1080.71,-19.153 1090.66,-22.7969 1090.76,-15.7976"/>
</g>
<!-- WebAccess&#45;&gt;其他 -->
<g id="edge124" class="edge"><title>WebAccess&#45;&gt;其他</title>
<path fill="none" stroke="black" d="M514.994,-160.724C799.904,-157.824 930.031,-132.56 1034.46,-108 1181.39,-73.4448 1361.73,-23.3787 1091.29,-19.2702"/>
<polygon fill="black" stroke="black" points="1091.1,-15.7676 1081.06,-19.1391 1091.01,-22.767 1091.1,-15.7676"/>
</g>
<!-- 拒绝服务 -->
<g id="node7" class="node"><title>拒绝服务</title>
<ellipse fill="none" stroke="black" cx="90.461" cy="-90" rx="44.393" ry="18"/>
<text text-anchor="middle" x="90.461" y="-86.3" font-family="Times New Roman,serif" font-size="14.00">拒绝服务</text>
</g>
<!-- WebAccess&#45;&gt;拒绝服务 -->
<g id="edge65" class="edge"><title>WebAccess&#45;&gt;拒绝服务</title>
<path fill="none" stroke="black" d="M408.836,-154.68C346.238,-146.362 236.666,-130.158 144.461,-108 140.806,-107.122 137.037,-106.126 133.271,-105.068"/>
<polygon fill="black" stroke="black" points="133.967,-101.625 123.386,-102.16 131.991,-108.34 133.967,-101.625"/>
</g>
<!-- 泄露 -->
<g id="node8" class="node"><title>泄露</title>
<ellipse fill="none" stroke="black" cx="267.461" cy="-90" rx="27.0966" ry="18"/>
<text text-anchor="middle" x="267.461" y="-86.3" font-family="Times New Roman,serif" font-size="14.00">泄露</text>
</g>
<!-- WebAccess&#45;&gt;泄露 -->
<g id="edge57" class="edge"><title>WebAccess&#45;&gt;泄露</title>
<path fill="none" stroke="black" d="M410.302,-153.571C371.41,-144.596 321.415,-128.587 277.604,-111.596"/>
<polygon fill="black" stroke="black" points="278.654,-108.248 268.067,-107.842 276.09,-114.761 278.654,-108.248"/>
</g>
<!-- WebAccess&#45;&gt;泄露 -->
<g id="edge58" class="edge"><title>WebAccess&#45;&gt;泄露</title>
<path fill="none" stroke="black" d="M414.639,-151.352C381.086,-142.028 335.293,-127.042 290.433,-109.474"/>
<polygon fill="black" stroke="black" points="291.465,-106.118 280.879,-105.687 288.886,-112.626 291.465,-106.118"/>
</g>
<!-- WebAccess&#45;&gt;泄露 -->
<g id="edge84" class="edge"><title>WebAccess&#45;&gt;泄露</title>
<path fill="none" stroke="black" d="M420.847,-148.998C389.246,-138.89 343.547,-123.615 304.461,-108 302.381,-107.169 300.249,-106.283 298.109,-105.369"/>
<polygon fill="black" stroke="black" points="299.384,-102.106 288.823,-101.26 296.552,-108.507 299.384,-102.106"/>
</g>
<!-- WebAccess&#45;&gt;泄露 -->
<g id="edge86" class="edge"><title>WebAccess&#45;&gt;泄露</title>
<path fill="none" stroke="black" d="M429.435,-146.88C401.1,-136.824 358.906,-122.56 322.461,-108 316.233,-105.512 309.539,-102.533 302.664,-99.7688"/>
<polygon fill="black" stroke="black" points="303.795,-96.4549 293.204,-96.1991 301.324,-103.004 303.795,-96.4549"/>
</g>
<!-- WebAccess&#45;&gt;泄露 -->
<g id="edge119" class="edge"><title>WebAccess&#45;&gt;泄露</title>
<path fill="none" stroke="black" d="M440.014,-145.089C414.228,-135.169 374.794,-121.716 340.461,-108 330.458,-104.004 319.255,-98.742 304.232,-95.137"/>
<polygon fill="black" stroke="black" points="304.858,-91.6928 294.361,-93.1326 303.465,-98.5527 304.858,-91.6928"/>
</g>
<!-- WebAccess&#45;&gt;注入 -->
<g id="edge30" class="edge"><title>WebAccess&#45;&gt;注入</title>
<path fill="none" stroke="black" d="M513.329,-157.626C694.233,-149.173 1238.84,-126.446 1319.46,-108 1334.86,-104.477 1351.89,-95.6953 1395.03,-92.336"/>
<polygon fill="black" stroke="black" points="1395.53,-95.8113 1405.28,-91.6714 1395.07,-88.826 1395.53,-95.8113"/>
</g>
<!-- WebAccess&#45;&gt;注入 -->
<g id="edge52" class="edge"><title>WebAccess&#45;&gt;注入</title>
<path fill="none" stroke="black" d="M513.4,-158.018C694.773,-149.897 1255.56,-126.74 1337.46,-108 1351.5,-104.788 1366.89,-97.2067 1395.18,-93.3466"/>
<polygon fill="black" stroke="black" points="1395.75,-96.8045 1405.29,-92.1918 1394.96,-89.8497 1395.75,-96.8045"/>
</g>
<!-- WebAccess&#45;&gt;注入 -->
<g id="edge59" class="edge"><title>WebAccess&#45;&gt;注入</title>
<path fill="none" stroke="black" d="M513.78,-158.361C696.448,-150.568 1272.37,-127.011 1355.46,-108 1367.08,-105.342 1379.62,-99.6916 1395.67,-95.6341"/>
<polygon fill="black" stroke="black" points="1396.53,-99.0292 1405.54,-93.4639 1395.02,-92.1924 1396.53,-99.0292"/>
</g>
<!-- WebAccess&#45;&gt;注入 -->
<g id="edge90" class="edge"><title>WebAccess&#45;&gt;注入</title>
<path fill="none" stroke="black" d="M513.785,-158.685C697.922,-151.241 1289.19,-127.282 1373.46,-108 1381.13,-106.246 1389.2,-103.188 1397.27,-100.145"/>
<polygon fill="black" stroke="black" points="1398.56,-103.402 1406.73,-96.6591 1396.13,-96.8344 1398.56,-103.402"/>
</g>
<!-- WebAccess&#45;&gt;注入 -->
<g id="edge99" class="edge"><title>WebAccess&#45;&gt;注入</title>
<path fill="none" stroke="black" d="M514.04,-158.965C700.597,-151.859 1306.1,-127.531 1391.46,-108 1394.87,-107.22 1398.36,-106.183 1401.79,-105.003"/>
<polygon fill="black" stroke="black" points="1403.12,-108.244 1411.2,-101.401 1400.61,-101.706 1403.12,-108.244"/>
</g>
<!-- WebAccess&#45;&gt;注入 -->
<g id="edge101" class="edge"><title>WebAccess&#45;&gt;注入</title>
<path fill="none" stroke="black" d="M514.199,-159.216C698.071,-152.656 1285.96,-129.246 1408.01,-107.589"/>
<polygon fill="black" stroke="black" points="1408.94,-110.972 1418.05,-105.567 1407.56,-104.11 1408.94,-110.972"/>
</g>
<!-- WebAccess&#45;&gt;注入 -->
<g id="edge111" class="edge"><title>WebAccess&#45;&gt;注入</title>
<path fill="none" stroke="black" d="M514.247,-159.441C701.357,-153.223 1299.77,-129.587 1417.76,-109.853"/>
<polygon fill="black" stroke="black" points="1418.76,-113.225 1427.91,-107.895 1417.43,-106.352 1418.76,-113.225"/>
</g>
<!-- WebAccess&#45;&gt;注入 -->
<g id="edge113" class="edge"><title>WebAccess&#45;&gt;注入</title>
<path fill="none" stroke="black" d="M514.508,-159.631C712.667,-153.525 1357.19,-128.197 1445.46,-108 1450.7,-106.802 1456.12,-104.995 1460.16,-103.001"/>
<polygon fill="black" stroke="black" points="1463.64,-102.663 1459.47,-92.9217 1456.66,-103.135 1463.64,-102.663"/>
</g>
<!-- WebAccess&#45;&gt;注入 -->
<g id="edge115" class="edge"><title>WebAccess&#45;&gt;注入</title>
<path fill="none" stroke="black" d="M514.317,-159.809C717.634,-154.036 1374.3,-128.401 1463.46,-108 1477.97,-104.679 1493.94,-96.6869 1469.93,-92.9666"/>
<polygon fill="black" stroke="black" points="1470.03,-89.4565 1459.71,-91.8435 1469.27,-96.4146 1470.03,-89.4565"/>
</g>
<!-- WebAccess&#45;&gt;溢出 -->
<g id="edge29" class="edge"><title>WebAccess&#45;&gt;溢出</title>
<path fill="none" stroke="black" d="M403.996,-160.395C109.195,-153.828 16.099,-95.938 302.478,-91.2954"/>
<polygon fill="black" stroke="black" points="302.875,-94.7904 312.825,-91.1529 302.778,-87.7911 302.875,-94.7904"/>
</g>
<!-- WebAccess&#45;&gt;溢出 -->
<g id="edge33" class="edge"><title>WebAccess&#45;&gt;溢出</title>
<path fill="none" stroke="black" d="M404.078,-160.33C126.454,-153.468 34.3841,-96.1382 302.937,-91.322"/>
<polygon fill="black" stroke="black" points="303.113,-94.8198 313.058,-91.1677 303.006,-87.8206 303.113,-94.8198"/>
</g>
<!-- WebAccess&#45;&gt;溢出 -->
<g id="edge35" class="edge"><title>WebAccess&#45;&gt;溢出</title>
<path fill="none" stroke="black" d="M404.453,-160.261C143.914,-153.117 52.7463,-96.4485 302.831,-91.3645"/>
<polygon fill="black" stroke="black" points="303.099,-94.8605 313.038,-91.1886 302.979,-87.8615 303.099,-94.8605"/>
</g>
<!-- WebAccess&#45;&gt;溢出 -->
<g id="edge37" class="edge"><title>WebAccess&#45;&gt;溢出</title>
<path fill="none" stroke="black" d="M404.315,-160.165C161.198,-152.649 71.3367,-96.7983 302.699,-91.4165"/>
<polygon fill="black" stroke="black" points="302.938,-94.9126 312.867,-91.2161 302.8,-87.9139 302.938,-94.9126"/>
</g>
<!-- WebAccess&#45;&gt;溢出 -->
<g id="edge38" class="edge"><title>WebAccess&#45;&gt;溢出</title>
<path fill="none" stroke="black" d="M404.188,-160.05C178.274,-152.125 89.8946,-97.134 302.918,-91.4708"/>
<polygon fill="black" stroke="black" points="303.036,-94.9691 312.955,-91.245 302.878,-87.9709 303.036,-94.9691"/>
</g>
<!-- WebAccess&#45;&gt;溢出 -->
<g id="edge39" class="edge"><title>WebAccess&#45;&gt;溢出</title>
<path fill="none" stroke="black" d="M404.491,-159.928C195.462,-151.615 108.465,-97.5699 302.877,-91.5456"/>
<polygon fill="black" stroke="black" points="303.059,-95.0421 312.964,-91.282 302.876,-88.0445 303.059,-95.0421"/>
</g>
<!-- WebAccess&#45;&gt;溢出 -->
<g id="edge40" class="edge"><title>WebAccess&#45;&gt;溢出</title>
<path fill="none" stroke="black" d="M404.567,-159.77C212.509,-150.999 127.23,-98.0869 302.761,-91.6427"/>
<polygon fill="black" stroke="black" points="303.11,-95.1338 312.997,-91.3277 302.894,-88.1371 303.11,-95.1338"/>
</g>
<!-- WebAccess&#45;&gt;溢出 -->
<g id="edge42" class="edge"><title>WebAccess&#45;&gt;溢出</title>
<path fill="none" stroke="black" d="M404.554,-159.57C229.289,-150.277 146.041,-98.6243 302.953,-91.7548"/>
<polygon fill="black" stroke="black" points="303.261,-95.246 313.126,-91.383 303.005,-88.2507 303.261,-95.246"/>
</g>
<!-- WebAccess&#45;&gt;溢出 -->
<g id="edge43" class="edge"><title>WebAccess&#45;&gt;溢出</title>
<path fill="none" stroke="black" d="M404.587,-159.322C246.111,-149.474 165.169,-99.3799 302.67,-91.9276"/>
<polygon fill="black" stroke="black" points="303.117,-95.4111 312.95,-91.4658 302.803,-88.4182 303.117,-95.4111"/>
</g>
<!-- WebAccess&#45;&gt;溢出 -->
<g id="edge44" class="edge"><title>WebAccess&#45;&gt;溢出</title>
<path fill="none" stroke="black" d="M404.796,-159.018C262.58,-148.576 184.208,-100.132 303.022,-92.1229"/>
<polygon fill="black" stroke="black" points="303.321,-95.6118 313.111,-91.5627 302.933,-88.6226 303.321,-95.6118"/>
</g>
<!-- WebAccess&#45;&gt;溢出 -->
<g id="edge45" class="edge"><title>WebAccess&#45;&gt;溢出</title>
<path fill="none" stroke="black" d="M405.07,-158.631C279.047,-147.572 203.693,-101.197 302.983,-92.4324"/>
<polygon fill="black" stroke="black" points="303.417,-95.9103 313.141,-91.7041 302.917,-88.9282 303.417,-95.9103"/>
</g>
<!-- WebAccess&#45;&gt;溢出 -->
<g id="edge46" class="edge"><title>WebAccess&#45;&gt;溢出</title>
<path fill="none" stroke="black" d="M405.384,-158.125C295.489,-146.444 223.813,-102.692 302.671,-92.9366"/>
<polygon fill="black" stroke="black" points="303.431,-96.379 313.042,-91.9199 302.748,-89.4124 303.431,-96.379"/>
</g>
<!-- WebAccess&#45;&gt;溢出 -->
<g id="edge47" class="edge"><title>WebAccess&#45;&gt;溢出</title>
<path fill="none" stroke="black" d="M405.965,-157.481C311.692,-145.218 244.345,-104.531 302.969,-93.6793"/>
<polygon fill="black" stroke="black" points="303.6,-97.125 313.007,-92.2519 302.614,-90.1947 303.6,-97.125"/>
</g>
<!-- WebAccess&#45;&gt;溢出 -->
<g id="edge54" class="edge"><title>WebAccess&#45;&gt;溢出</title>
<path fill="none" stroke="black" d="M406.691,-156.621C328.194,-143.96 266.5,-107.428 303.354,-95.1108"/>
<polygon fill="black" stroke="black" points="304.502,-98.4369 313.443,-92.7525 302.909,-91.6207 304.502,-98.4369"/>
</g>
<!-- WebAccess&#45;&gt;溢出 -->
<g id="edge56" class="edge"><title>WebAccess&#45;&gt;溢出</title>
<path fill="none" stroke="black" d="M407.85,-155.507C346.858,-143.211 293.826,-113.425 304.671,-99.0395"/>
<polygon fill="black" stroke="black" points="306.545,-101.998 313.393,-93.9132 302.998,-95.9631 306.545,-101.998"/>
</g>
<!-- WebAccess&#45;&gt;溢出 -->
<g id="edge62" class="edge"><title>WebAccess&#45;&gt;溢出</title>
<path fill="none" stroke="black" d="M409.679,-154.097C366.578,-143.21 325.514,-121.768 315.641,-106.921"/>
<polygon fill="black" stroke="black" points="319.121,-106.503 314.968,-96.7563 312.137,-106.966 319.121,-106.503"/>
</g>
<!-- WebAccess&#45;&gt;溢出 -->
<g id="edge64" class="edge"><title>WebAccess&#45;&gt;溢出</title>
<path fill="none" stroke="black" d="M412.569,-152.417C381.017,-142.498 348.787,-125.812 332.838,-112.334"/>
<polygon fill="black" stroke="black" points="335.3,-109.847 325.759,-105.239 330.345,-114.791 335.3,-109.847"/>
</g>
<!-- WebAccess&#45;&gt;溢出 -->
<g id="edge68" class="edge"><title>WebAccess&#45;&gt;溢出</title>
<path fill="none" stroke="black" d="M416.733,-150.52C391.989,-140.972 365.074,-126.53 348.005,-114.263"/>
<polygon fill="black" stroke="black" points="350.086,-111.448 340.039,-108.084 345.795,-116.979 350.086,-111.448"/>
</g>
<!-- WebAccess&#45;&gt;溢出 -->
<g id="edge70" class="edge"><title>WebAccess&#45;&gt;溢出</title>
<path fill="none" stroke="black" d="M422.239,-148.485C400.912,-138.573 375.983,-124.488 358.522,-112.741"/>
<polygon fill="black" stroke="black" points="360.324,-109.73 350.13,-106.846 356.301,-115.458 360.324,-109.73"/>
</g>
<!-- WebAccess&#45;&gt;溢出 -->
<g id="edge72" class="edge"><title>WebAccess&#45;&gt;溢出</title>
<path fill="none" stroke="black" d="M429.522,-146.666C409.893,-135.941 384.649,-121.183 365.969,-109.557"/>
<polygon fill="black" stroke="black" points="367.705,-106.513 357.381,-104.133 363.967,-112.432 367.705,-106.513"/>
</g>
<!-- WebAccess&#45;&gt;溢出 -->
<g id="edge73" class="edge"><title>WebAccess&#45;&gt;溢出</title>
<path fill="none" stroke="black" d="M438.496,-145.291C419.819,-133.493 392.498,-117.442 371.353,-105.856"/>
<polygon fill="black" stroke="black" points="372.883,-102.704 362.42,-101.034 369.558,-108.864 372.883,-102.704"/>
</g>
<!-- WebAccess&#45;&gt;溢出 -->
<g id="edge74" class="edge"><title>WebAccess&#45;&gt;溢出</title>
<path fill="none" stroke="black" d="M448.289,-144.055C430.245,-130.995 399.392,-113.317 374.454,-102.033"/>
<polygon fill="black" stroke="black" points="375.792,-98.7987 365.224,-98.0445 373.015,-105.224 375.792,-98.7987"/>
</g>
<!-- WebAccess&#45;&gt;溢出 -->
<g id="edge75" class="edge"><title>WebAccess&#45;&gt;溢出</title>
<path fill="none" stroke="black" d="M459.624,-143.697C442.665,-129.376 406.778,-109.691 376.183,-98.8889"/>
<polygon fill="black" stroke="black" points="377.059,-95.493 366.467,-95.7118 374.884,-102.146 377.059,-95.493"/>
</g>
<!-- WebAccess&#45;&gt;溢出 -->
<g id="edge76" class="edge"><title>WebAccess&#45;&gt;溢出</title>
<path fill="none" stroke="black" d="M472.139,-144.411C457.722,-129.009 415.702,-106.958 377.397,-96.6786"/>
<polygon fill="black" stroke="black" points="377.782,-93.1707 367.239,-94.2181 376.134,-99.974 377.782,-93.1707"/>
</g>
<!-- WebAccess&#45;&gt;溢出 -->
<g id="edge77" class="edge"><title>WebAccess&#45;&gt;溢出</title>
<path fill="none" stroke="black" d="M484.746,-145.811C474.886,-129.485 425.544,-104.583 377.295,-94.974"/>
<polygon fill="black" stroke="black" points="377.809,-91.5106 367.352,-93.2136 376.588,-98.4034 377.809,-91.5106"/>
</g>
<!-- WebAccess&#45;&gt;溢出 -->
<g id="edge78" class="edge"><title>WebAccess&#45;&gt;溢出</title>
<path fill="none" stroke="black" d="M496.661,-148.485C495.919,-131.797 438.779,-103.28 378.063,-94.0085"/>
<polygon fill="black" stroke="black" points="378.275,-90.5057 367.899,-92.6442 377.344,-97.4435 378.275,-90.5057"/>
</g>
<!-- WebAccess&#45;&gt;溢出 -->
<g id="edge79" class="edge"><title>WebAccess&#45;&gt;溢出</title>
<path fill="none" stroke="black" d="M505.41,-151.849C520.243,-135.516 454.374,-102.217 378.032,-93.2605"/>
<polygon fill="black" stroke="black" points="377.996,-89.7387 367.692,-92.2051 377.285,-96.7025 377.996,-89.7387"/>
</g>
<!-- WebAccess&#45;&gt;溢出 -->
<g id="edge80" class="edge"><title>WebAccess&#45;&gt;溢出</title>
<path fill="none" stroke="black" d="M510.178,-154.54C544.766,-139.209 471.168,-101.272 377.783,-92.7277"/>
<polygon fill="black" stroke="black" points="378.044,-89.2375 367.798,-91.9333 377.489,-96.2155 378.044,-89.2375"/>
</g>
<!-- WebAccess&#45;&gt;溢出 -->
<g id="edge81" class="edge"><title>WebAccess&#45;&gt;溢出</title>
<path fill="none" stroke="black" d="M512.166,-156.407C568.309,-142.368 488.595,-100.485 377.766,-92.3701"/>
<polygon fill="black" stroke="black" points="377.85,-88.8685 367.649,-91.7293 377.408,-95.8545 377.85,-88.8685"/>
</g>
<!-- WebAccess&#45;&gt;溢出 -->
<g id="edge82" class="edge"><title>WebAccess&#45;&gt;溢出</title>
<path fill="none" stroke="black" d="M513.092,-157.576C590.387,-144.735 505.973,-99.7792 377.84,-92.1151"/>
<polygon fill="black" stroke="black" points="377.906,-88.614 367.739,-91.5933 377.545,-95.6046 377.906,-88.614"/>
</g>
<!-- WebAccess&#45;&gt;溢出 -->
<g id="edge83" class="edge"><title>WebAccess&#45;&gt;溢出</title>
<path fill="none" stroke="black" d="M513.6,-158.341C611.46,-146.538 523.288,-99.141 377.899,-91.9235"/>
<polygon fill="black" stroke="black" points="377.929,-88.4216 367.789,-91.4905 377.63,-95.4152 377.929,-88.4216"/>
</g>
<!-- WebAccess&#45;&gt;溢出 -->
<g id="edge88" class="edge"><title>WebAccess&#45;&gt;溢出</title>
<path fill="none" stroke="black" d="M513.944,-158.867C631.792,-147.954 540.675,-98.6169 378.172,-91.7856"/>
<polygon fill="black" stroke="black" points="377.992,-88.2769 367.872,-91.4132 377.739,-95.2724 377.992,-88.2769"/>
</g>
<!-- WebAccess&#45;&gt;溢出 -->
<g id="edge92" class="edge"><title>WebAccess&#45;&gt;溢出</title>
<path fill="none" stroke="black" d="M514.343,-159.235C651.708,-149.053 557.848,-98.0584 377.957,-91.6599"/>
<polygon fill="black" stroke="black" points="378.044,-88.161 367.942,-91.3525 377.829,-95.1577 378.044,-88.161"/>
</g>
<!-- WebAccess&#45;&gt;溢出 -->
<g id="edge93" class="edge"><title>WebAccess&#45;&gt;溢出</title>
<path fill="none" stroke="black" d="M514.24,-159.538C671.432,-150.068 575.345,-97.6099 377.963,-91.5674"/>
<polygon fill="black" stroke="black" points="377.97,-88.0664 367.881,-91.3015 377.785,-95.064 377.97,-88.0664"/>
</g>
<!-- WebAccess&#45;&gt;溢出 -->
<g id="edge94" class="edge"><title>WebAccess&#45;&gt;溢出</title>
<path fill="none" stroke="black" d="M514.382,-159.755C690.758,-150.867 592.791,-97.2198 378.041,-91.4947"/>
<polygon fill="black" stroke="black" points="377.805,-87.9885 367.727,-91.2587 377.644,-94.9867 377.805,-87.9885"/>
</g>
<!-- WebAccess&#45;&gt;溢出 -->
<g id="edge95" class="edge"><title>WebAccess&#45;&gt;溢出</title>
<path fill="none" stroke="black" d="M514.453,-159.928C709.93,-151.56 610.278,-96.8587 378.031,-91.4332"/>
<polygon fill="black" stroke="black" points="378.01,-87.9322 367.942,-91.2302 377.869,-94.9308 378.01,-87.9322"/>
</g>
<!-- WebAccess&#45;&gt;溢出 -->
<g id="edge96" class="edge"><title>WebAccess&#45;&gt;溢出</title>
<path fill="none" stroke="black" d="M514.613,-160.063C728.924,-152.142 627.758,-96.5289 377.984,-91.3816"/>
<polygon fill="black" stroke="black" points="377.955,-87.8806 367.894,-91.2026 377.831,-94.8795 377.955,-87.8806"/>
</g>
<!-- WebAccess&#45;&gt;溢出 -->
<g id="edge102" class="edge"><title>WebAccess&#45;&gt;溢出</title>
<path fill="none" stroke="black" d="M514.643,-160.177C747.701,-152.677 645.443,-96.2972 378.393,-91.3469"/>
<polygon fill="black" stroke="black" points="378.064,-87.8413 368.01,-91.1817 377.953,-94.8404 378.064,-87.8413"/>
</g>
<!-- WebAccess&#45;&gt;溢出 -->
<g id="edge107" class="edge"><title>WebAccess&#45;&gt;溢出</title>
<path fill="none" stroke="black" d="M514.62,-160.273C766.581,-153.15 663.007,-95.9982 378.131,-91.3061"/>
<polygon fill="black" stroke="black" points="377.969,-87.8036 367.921,-91.1615 377.87,-94.8029 377.969,-87.8036"/>
</g>
<!-- WebAccess&#45;&gt;溢出 -->
<g id="edge108" class="edge"><title>WebAccess&#45;&gt;溢出</title>
<path fill="none" stroke="black" d="M514.623,-160.352C785.188,-153.572 680.736,-95.803 378.468,-91.2806"/>
<polygon fill="black" stroke="black" points="378.136,-87.7761 368.092,-91.1472 378.046,-94.7755 378.136,-87.7761"/>
</g>
<!-- 权限提升 -->
<g id="node12" class="node"><title>权限提升</title>
<ellipse fill="none" stroke="black" cx="657.461" cy="-90" rx="44.393" ry="18"/>
<text text-anchor="middle" x="657.461" y="-86.3" font-family="Times New Roman,serif" font-size="14.00">权限提升</text>
</g>
<!-- WebAccess&#45;&gt;权限提升 -->
<g id="edge32" class="edge"><title>WebAccess&#45;&gt;权限提升</title>
<path fill="none" stroke="black" d="M495.777,-148.161C529.657,-136.183 580.176,-118.323 615.707,-105.762"/>
<polygon fill="black" stroke="black" points="617.043,-109.001 625.305,-102.368 614.71,-102.402 617.043,-109.001"/>
</g>
<!-- 未授权操作 -->
<g id="node13" class="node"><title>未授权操作</title>
<ellipse fill="none" stroke="black" cx="437.461" cy="-90" rx="51.9908" ry="18"/>
<text text-anchor="middle" x="437.461" y="-86.3" font-family="Times New Roman,serif" font-size="14.00">未授权操作</text>
</g>
<!-- WebAccess&#45;&gt;未授权操作 -->
<g id="edge34" class="edge"><title>WebAccess&#45;&gt;未授权操作</title>
<path fill="none" stroke="black" d="M454.135,-144.055C451.686,-136.261 448.719,-126.822 445.971,-118.079"/>
<polygon fill="black" stroke="black" points="449.228,-116.766 442.89,-108.275 442.55,-118.865 449.228,-116.766"/>
</g>
<!-- 验证绕过 -->
<g id="node14" class="node"><title>验证绕过</title>
<ellipse fill="none" stroke="black" cx="551.461" cy="-90" rx="44.393" ry="18"/>
<text text-anchor="middle" x="551.461" y="-86.3" font-family="Times New Roman,serif" font-size="14.00">验证绕过</text>
</g>
<!-- WebAccess&#45;&gt;验证绕过 -->
<g id="edge36" class="edge"><title>WebAccess&#45;&gt;验证绕过</title>
<path fill="none" stroke="black" d="M475.424,-144.411C487.48,-134.407 504.205,-121.598 518.965,-111.032"/>
<polygon fill="black" stroke="black" points="521.217,-113.727 527.379,-105.108 517.187,-108.003 521.217,-113.727"/>
</g>
<!-- WebAccess&#45;&gt;验证绕过 -->
<g id="edge85" class="edge"><title>WebAccess&#45;&gt;验证绕过</title>
<path fill="none" stroke="black" d="M485.102,-145.811C498.555,-136.443 514.807,-124.252 527.933,-113.747"/>
<polygon fill="black" stroke="black" points="530.506,-116.165 536.046,-107.134 526.084,-110.739 530.506,-116.165"/>
</g>
<!-- Oracle&#45;&gt;其他 -->
<g id="edge15" class="edge"><title>Oracle&#45;&gt;其他</title>
<path fill="none" stroke="black" d="M213.114,-77.5885C219.035,-75.3787 225.383,-73.3372 231.461,-72 384.084,-38.4243 875.234,-23.5483 1015.64,-19.915"/>
<polygon fill="black" stroke="black" points="1015.98,-23.4075 1025.89,-19.6538 1015.81,-16.4098 1015.98,-23.4075"/>
</g>
<!-- Cisco&#45;&gt;其他 -->
<g id="edge5" class="edge"><title>Cisco&#45;&gt;其他</title>
<path fill="none" stroke="black" d="M62.9023,-152.189C29.0435,-135.171 -13.4957,-97.2389 10.461,-72 45.2967,-35.2997 832.059,-21.8332 1015.87,-19.4147"/>
<polygon fill="black" stroke="black" points="1016.18,-22.9112 1026.13,-19.2832 1016.09,-15.9118 1016.18,-22.9112"/>
</g>
<!-- Cisco&#45;&gt;其他 -->
<g id="edge8" class="edge"><title>Cisco&#45;&gt;其他</title>
<path fill="none" stroke="black" d="M67.8902,-148.638C41.825,-130.324 6.05193,-95.6085 28.461,-72 62.98,-35.6334 835.816,-22.08 1016.15,-19.4834"/>
<polygon fill="black" stroke="black" points="1016.26,-22.9823 1026.21,-19.3412 1016.16,-15.983 1016.26,-22.9823"/>
</g>
<!-- Cisco&#45;&gt;其他 -->
<g id="edge9" class="edge"><title>Cisco&#45;&gt;其他</title>
<path fill="none" stroke="black" d="M76.1279,-145.457C56.0498,-126.522 25.29,-94.3042 46.461,-72 80.609,-36.0242 837.291,-22.3739 1015.96,-19.5709"/>
<polygon fill="black" stroke="black" points="1016.23,-23.0673 1026.18,-19.4126 1016.12,-16.0681 1016.23,-23.0673"/>
</g>
<!-- Cisco&#45;&gt;其他 -->
<g id="edge13" class="edge"><title>Cisco&#45;&gt;其他</title>
<path fill="none" stroke="black" d="M87.4331,-143.763C72.2954,-124.646 43.909,-93.652 64.461,-72 98.218,-36.4361 838.057,-22.6894 1015.85,-19.6715"/>
<polygon fill="black" stroke="black" points="1016.09,-23.168 1026.03,-19.4999 1015.97,-16.169 1016.09,-23.168"/>
</g>
<!-- Cisco&#45;&gt;拒绝服务 -->
<g id="edge6" class="edge"><title>Cisco&#45;&gt;拒绝服务</title>
<path fill="none" stroke="black" d="M78.9393,-145.116C77.0734,-137.027 76.5274,-126.973 77.3013,-117.734"/>
<polygon fill="black" stroke="black" points="80.771,-118.195 78.736,-107.797 73.8428,-117.195 80.771,-118.195"/>
</g>
<!-- Cisco&#45;&gt;拒绝服务 -->
<g id="edge7" class="edge"><title>Cisco&#45;&gt;拒绝服务</title>
<path fill="none" stroke="black" d="M90.461,-143.697C90.461,-135.983 90.461,-126.712 90.461,-118.112"/>
<polygon fill="black" stroke="black" points="93.9611,-118.104 90.461,-108.104 86.9611,-118.104 93.9611,-118.104"/>
</g>
<!-- Cisco&#45;&gt;拒绝服务 -->
<g id="edge12" class="edge"><title>Cisco&#45;&gt;拒绝服务</title>
<path fill="none" stroke="black" d="M101.983,-145.116C103.849,-137.027 104.395,-126.973 103.621,-117.734"/>
<polygon fill="black" stroke="black" points="107.079,-117.195 102.186,-107.797 100.151,-118.195 107.079,-117.195"/>
</g>
<!-- Cisco&#45;&gt;泄露 -->
<g id="edge10" class="edge"><title>Cisco&#45;&gt;泄露</title>
<path fill="none" stroke="black" d="M114.801,-149.821C141.377,-139.49 184.54,-123.449 221.461,-108 225.533,-106.296 229.819,-104.412 234.104,-102.537"/>
<polygon fill="black" stroke="black" points="235.607,-105.701 243.398,-98.521 232.83,-99.2753 235.607,-105.701"/>
</g>
<!-- Cisco&#45;&gt;泄露 -->
<g id="edge11" class="edge"><title>Cisco&#45;&gt;泄露</title>
<path fill="none" stroke="black" d="M119.006,-153.112C149.486,-143.144 198.344,-125.205 239.461,-108 239.665,-107.915 239.869,-107.829 240.074,-107.743"/>
<polygon fill="black" stroke="black" points="241.653,-110.873 249.411,-103.657 238.847,-104.46 241.653,-110.873"/>
</g>
<!-- SQL&#45;&gt;注入 -->
<g id="edge126" class="edge"><title>SQL&#45;&gt;注入</title>
<path fill="none" stroke="black" d="M1403.74,-160.846C1085.08,-157.359 1082.06,-95.8544 1394.69,-91.2699"/>
<polygon fill="black" stroke="black" points="1395.03,-94.766 1404.99,-91.1408 1394.94,-87.7665 1395.03,-94.766"/>
</g>
<!-- SQL&#45;&gt;注入 -->
<g id="edge127" class="edge"><title>SQL&#45;&gt;注入</title>
<path fill="none" stroke="black" d="M1403.75,-160.829C1103.03,-157.174 1100.06,-96.0849 1394.86,-91.2971"/>
<polygon fill="black" stroke="black" points="1395.07,-94.7947 1405.02,-91.156 1394.97,-87.7953 1395.07,-94.7947"/>
</g>
<!-- SQL&#45;&gt;注入 -->
<g id="edge128" class="edge"><title>SQL&#45;&gt;注入</title>
<path fill="none" stroke="black" d="M1403.48,-160.805C1121.04,-156.928 1118.15,-96.368 1394.83,-91.3327"/>
<polygon fill="black" stroke="black" points="1395.27,-94.8264 1405.21,-91.1716 1395.16,-87.8272 1395.27,-94.8264"/>
</g>
<!-- SQL&#45;&gt;注入 -->
<g id="edge129" class="edge"><title>SQL&#45;&gt;注入</title>
<path fill="none" stroke="black" d="M1403.83,-160.787C1138.98,-156.747 1136.04,-96.6545 1395.01,-91.3705"/>
<polygon fill="black" stroke="black" points="1395.19,-94.8679 1405.13,-91.1941 1395.07,-87.869 1395.19,-94.8679"/>
</g>
<!-- SQL&#45;&gt;注入 -->
<g id="edge130" class="edge"><title>SQL&#45;&gt;注入</title>
<path fill="none" stroke="black" d="M1403.55,-160.753C1157.07,-156.445 1154.13,-97.0455 1394.75,-91.426"/>
<polygon fill="black" stroke="black" points="1394.97,-94.9224 1404.89,-91.2236 1394.83,-87.9238 1394.97,-94.9224"/>
</g>
<!-- SQL&#45;&gt;注入 -->
<g id="edge131" class="edge"><title>SQL&#45;&gt;注入</title>
<path fill="none" stroke="black" d="M1403.88,-160.725C1175.05,-156.208 1172.03,-97.437 1394.81,-91.4853"/>
<polygon fill="black" stroke="black" points="1394.97,-94.9825 1404.89,-91.2552 1394.82,-87.9843 1394.97,-94.9825"/>
</g>
<!-- SQL&#45;&gt;注入 -->
<g id="edge132" class="edge"><title>SQL&#45;&gt;注入</title>
<path fill="none" stroke="black" d="M1403.74,-160.68C1193.01,-155.851 1190.08,-97.8675 1394.93,-91.5562"/>
<polygon fill="black" stroke="black" points="1395.26,-95.049 1405.16,-91.2882 1395.07,-88.0514 1395.26,-95.049"/>
</g>
<!-- SQL&#45;&gt;注入 -->
<g id="edge133" class="edge"><title>SQL&#45;&gt;注入</title>
<path fill="none" stroke="black" d="M1403.91,-160.632C1211.04,-155.502 1208.03,-98.4066 1394.86,-91.6517"/>
<polygon fill="black" stroke="black" points="1395.18,-95.1435 1405.07,-91.338 1394.97,-88.1468 1395.18,-95.1435"/>
</g>
<!-- SQL&#45;&gt;注入 -->
<g id="edge134" class="edge"><title>SQL&#45;&gt;注入</title>
<path fill="none" stroke="black" d="M1403.8,-160.562C1228.99,-155.038 1226.07,-98.977 1395.03,-91.763"/>
<polygon fill="black" stroke="black" points="1395.2,-95.2593 1405.06,-91.3988 1394.94,-88.2639 1395.2,-95.2593"/>
</g>
<!-- SQL&#45;&gt;注入 -->
<g id="edge135" class="edge"><title>SQL&#45;&gt;注入</title>
<path fill="none" stroke="black" d="M1403.83,-160.477C1246.99,-154.527 1244.06,-99.6911 1395.04,-91.9154"/>
<polygon fill="black" stroke="black" points="1395.37,-95.4044 1405.21,-91.4723 1395.07,-88.4111 1395.37,-95.4044"/>
</g>
<!-- SQL&#45;&gt;注入 -->
<g id="edge136" class="edge"><title>SQL&#45;&gt;注入</title>
<path fill="none" stroke="black" d="M1403.61,-160.352C1265.03,-153.857 1262.14,-100.576 1394.93,-92.1268"/>
<polygon fill="black" stroke="black" points="1395.35,-95.6091 1405.15,-91.5782 1394.98,-88.6192 1395.35,-95.6091"/>
</g>
<!-- SQL&#45;&gt;注入 -->
<g id="edge137" class="edge"><title>SQL&#45;&gt;注入</title>
<path fill="none" stroke="black" d="M1403.98,-160.214C1282.93,-153.209 1280.02,-101.534 1395.26,-92.3832"/>
<polygon fill="black" stroke="black" points="1395.52,-95.8741 1405.26,-91.7142 1395.05,-88.8897 1395.52,-95.8741"/>
</g>
<!-- SQL&#45;&gt;注入 -->
<g id="edge138" class="edge"><title>SQL&#45;&gt;注入</title>
<path fill="none" stroke="black" d="M1403.86,-159.983C1301.02,-152.263 1298.08,-102.9 1395.05,-92.8027"/>
<polygon fill="black" stroke="black" points="1395.42,-96.2844 1405.07,-91.9276 1394.81,-89.311 1395.42,-96.2844"/>
</g>
<!-- SQL&#45;&gt;注入 -->
<g id="edge139" class="edge"><title>SQL&#45;&gt;注入</title>
<path fill="none" stroke="black" d="M1404,-159.664C1318.98,-151.155 1316.05,-104.522 1395.22,-93.3878"/>
<polygon fill="black" stroke="black" points="1395.75,-96.8491 1405.28,-92.2109 1394.94,-89.8965 1395.75,-96.8491"/>
</g>
<!-- SQL&#45;&gt;注入 -->
<g id="edge140" class="edge"><title>SQL&#45;&gt;注入</title>
<path fill="none" stroke="black" d="M1404.17,-159.164C1337.06,-149.746 1334.04,-106.827 1395.09,-94.3877"/>
<polygon fill="black" stroke="black" points="1395.72,-97.8314 1405,-92.7217 1394.56,-90.9283 1395.72,-97.8314"/>
</g>
<!-- SQL&#45;&gt;注入 -->
<g id="edge141" class="edge"><title>SQL&#45;&gt;注入</title>
<path fill="none" stroke="black" d="M1404.13,-158.256C1354.8,-147.685 1352.07,-109.514 1395.92,-95.8815"/>
<polygon fill="black" stroke="black" points="1396.8,-99.268 1405.64,-93.4304 1395.09,-92.4803 1396.8,-99.268"/>
</g>
<!-- SQL&#45;&gt;注入 -->
<g id="edge142" class="edge"><title>SQL&#45;&gt;注入</title>
<path fill="none" stroke="black" d="M1404.86,-156.727C1372.61,-145.267 1369.91,-113.72 1396.75,-98.8935"/>
<polygon fill="black" stroke="black" points="1398.25,-102.059 1406.04,-94.8699 1395.47,-95.6366 1398.25,-102.059"/>
</g>
<!-- SQL&#45;&gt;注入 -->
<g id="edge143" class="edge"><title>SQL&#45;&gt;注入</title>
<path fill="none" stroke="black" d="M1406.62,-153.772C1389.74,-142.171 1387.44,-119.209 1399.71,-104.506"/>
<polygon fill="black" stroke="black" points="1402.27,-106.914 1407.45,-97.6733 1397.63,-101.666 1402.27,-106.914"/>
</g>
<!-- SQL&#45;&gt;注入 -->
<g id="edge144" class="edge"><title>SQL&#45;&gt;注入</title>
<path fill="none" stroke="black" d="M1411.8,-149.441C1405.09,-139.146 1403.71,-123.842 1407.64,-111.478"/>
<polygon fill="black" stroke="black" points="1410.85,-112.883 1411.94,-102.344 1404.51,-109.905 1410.85,-112.883"/>
</g>
<!-- SQL&#45;&gt;注入 -->
<g id="edge145" class="edge"><title>SQL&#45;&gt;注入</title>
<path fill="none" stroke="black" d="M1421.02,-145.465C1419,-136.946 1418.47,-126.171 1419.42,-116.458"/>
<polygon fill="black" stroke="black" points="1422.89,-116.923 1421.03,-106.492 1415.98,-115.804 1422.89,-116.923"/>
</g>
<!-- SQL&#45;&gt;注入 -->
<g id="edge146" class="edge"><title>SQL&#45;&gt;注入</title>
<path fill="none" stroke="black" d="M1432.46,-143.697C1432.46,-135.983 1432.46,-126.712 1432.46,-118.112"/>
<polygon fill="black" stroke="black" points="1435.96,-118.104 1432.46,-108.104 1428.96,-118.104 1435.96,-118.104"/>
</g>
<!-- SQL&#45;&gt;注入 -->
<g id="edge147" class="edge"><title>SQL&#45;&gt;注入</title>
<path fill="none" stroke="black" d="M1443.9,-145.465C1445.92,-136.946 1446.46,-126.171 1445.5,-116.458"/>
<polygon fill="black" stroke="black" points="1448.94,-115.804 1443.89,-106.492 1442.03,-116.923 1448.94,-115.804"/>
</g>
<!-- SQL&#45;&gt;注入 -->
<g id="edge148" class="edge"><title>SQL&#45;&gt;注入</title>
<path fill="none" stroke="black" d="M1453.13,-149.441C1459.83,-139.146 1461.21,-123.842 1457.28,-111.478"/>
<polygon fill="black" stroke="black" points="1460.41,-109.905 1452.98,-102.344 1454.07,-112.883 1460.41,-109.905"/>
</g>
<!-- SQL&#45;&gt;注入 -->
<g id="edge149" class="edge"><title>SQL&#45;&gt;注入</title>
<path fill="none" stroke="black" d="M1458.3,-153.772C1475.18,-142.171 1477.48,-119.209 1465.22,-104.506"/>
<polygon fill="black" stroke="black" points="1467.29,-101.666 1457.47,-97.6733 1462.66,-106.914 1467.29,-101.666"/>
</g>
<!-- SQL&#45;&gt;注入 -->
<g id="edge150" class="edge"><title>SQL&#45;&gt;注入</title>
<path fill="none" stroke="black" d="M1460.06,-156.727C1492.31,-145.267 1495.01,-113.72 1468.17,-98.8935"/>
<polygon fill="black" stroke="black" points="1469.45,-95.6366 1458.89,-94.8699 1466.67,-102.059 1469.45,-95.6366"/>
</g>
<!-- SQL&#45;&gt;注入 -->
<g id="edge151" class="edge"><title>SQL&#45;&gt;注入</title>
<path fill="none" stroke="black" d="M1460.8,-158.256C1510.12,-147.685 1512.86,-109.514 1469,-95.8815"/>
<polygon fill="black" stroke="black" points="1469.83,-92.4803 1459.28,-93.4304 1468.12,-99.268 1469.83,-92.4803"/>
</g>
<!-- SQL&#45;&gt;注入 -->
<g id="edge152" class="edge"><title>SQL&#45;&gt;注入</title>
<path fill="none" stroke="black" d="M1460.76,-159.164C1527.86,-149.746 1530.89,-106.827 1469.83,-94.3877"/>
<polygon fill="black" stroke="black" points="1470.37,-90.9283 1459.92,-92.7217 1469.21,-97.8314 1470.37,-90.9283"/>
</g>
<!-- SQL&#45;&gt;注入 -->
<g id="edge153" class="edge"><title>SQL&#45;&gt;注入</title>
<path fill="none" stroke="black" d="M1460.93,-159.664C1545.94,-151.155 1548.87,-104.522 1469.7,-93.3878"/>
<polygon fill="black" stroke="black" points="1469.98,-89.8965 1459.64,-92.2109 1469.17,-96.8491 1469.98,-89.8965"/>
</g>
<!-- SQL&#45;&gt;注入 -->
<g id="edge154" class="edge"><title>SQL&#45;&gt;注入</title>
<path fill="none" stroke="black" d="M1461.06,-159.983C1563.91,-152.263 1566.84,-102.9 1469.87,-92.8027"/>
<polygon fill="black" stroke="black" points="1470.11,-89.311 1459.85,-91.9276 1469.5,-96.2844 1470.11,-89.311"/>
</g>
<!-- SQL&#45;&gt;注入 -->
<g id="edge155" class="edge"><title>SQL&#45;&gt;注入</title>
<path fill="none" stroke="black" d="M1460.94,-160.214C1581.99,-153.209 1584.9,-101.534 1469.66,-92.3832"/>
<polygon fill="black" stroke="black" points="1469.87,-88.8897 1459.66,-91.7142 1469.41,-95.8741 1469.87,-88.8897"/>
</g>
<!-- SQL&#45;&gt;注入 -->
<g id="edge156" class="edge"><title>SQL&#45;&gt;注入</title>
<path fill="none" stroke="black" d="M1461.31,-160.352C1599.89,-153.857 1602.78,-100.576 1470,-92.1268"/>
<polygon fill="black" stroke="black" points="1469.95,-88.6192 1459.77,-91.5782 1469.57,-95.6091 1469.95,-88.6192"/>
</g>
<!-- SQL&#45;&gt;注入 -->
<g id="edge157" class="edge"><title>SQL&#45;&gt;注入</title>
<path fill="none" stroke="black" d="M1461.09,-160.477C1617.93,-154.527 1620.86,-99.6911 1469.88,-91.9154"/>
<polygon fill="black" stroke="black" points="1469.86,-88.4111 1459.71,-91.4723 1469.55,-95.4044 1469.86,-88.4111"/>
</g>
<!-- SQL&#45;&gt;注入 -->
<g id="edge158" class="edge"><title>SQL&#45;&gt;注入</title>
<path fill="none" stroke="black" d="M1461.13,-160.562C1635.93,-155.038 1638.86,-98.977 1469.89,-91.763"/>
<polygon fill="black" stroke="black" points="1469.98,-88.2639 1459.86,-91.3988 1469.72,-95.2593 1469.98,-88.2639"/>
</g>
<!-- SQL&#45;&gt;注入 -->
<g id="edge159" class="edge"><title>SQL&#45;&gt;注入</title>
<path fill="none" stroke="black" d="M1461.02,-160.632C1653.88,-155.502 1656.89,-98.4066 1470.06,-91.6517"/>
<polygon fill="black" stroke="black" points="1469.96,-88.1468 1459.85,-91.338 1469.74,-95.1435 1469.96,-88.1468"/>
</g>
<!-- SQL&#45;&gt;注入 -->
<g id="edge160" class="edge"><title>SQL&#45;&gt;注入</title>
<path fill="none" stroke="black" d="M1461.18,-160.68C1671.91,-155.851 1674.85,-97.8675 1469.99,-91.5562"/>
<polygon fill="black" stroke="black" points="1469.85,-88.0514 1459.76,-91.2882 1469.67,-95.049 1469.85,-88.0514"/>
</g>
<!-- SQL&#45;&gt;注入 -->
<g id="edge161" class="edge"><title>SQL&#45;&gt;注入</title>
<path fill="none" stroke="black" d="M1461.04,-160.725C1689.87,-156.208 1692.89,-97.437 1470.11,-91.4853"/>
<polygon fill="black" stroke="black" points="1470.11,-87.9843 1460.03,-91.2552 1469.95,-94.9825 1470.11,-87.9843"/>
</g>
<!-- SQL&#45;&gt;注入 -->
<g id="edge162" class="edge"><title>SQL&#45;&gt;注入</title>
<path fill="none" stroke="black" d="M1461.38,-160.753C1707.85,-156.445 1710.79,-97.0455 1470.17,-91.426"/>
<polygon fill="black" stroke="black" points="1470.1,-87.9238 1460.03,-91.2236 1469.96,-94.9224 1470.1,-87.9238"/>
</g>
<!-- SQL&#45;&gt;注入 -->
<g id="edge163" class="edge"><title>SQL&#45;&gt;注入</title>
<path fill="none" stroke="black" d="M1461.09,-160.787C1725.94,-156.747 1728.88,-96.6545 1469.91,-91.3705"/>
<polygon fill="black" stroke="black" points="1469.85,-87.869 1459.79,-91.1941 1469.73,-94.8679 1469.85,-87.869"/>
</g>
<!-- SQL&#45;&gt;注入 -->
<g id="edge164" class="edge"><title>SQL&#45;&gt;注入</title>
<path fill="none" stroke="black" d="M1461.44,-160.805C1743.89,-156.928 1746.77,-96.368 1470.1,-91.3327"/>
<polygon fill="black" stroke="black" points="1469.76,-87.8272 1459.71,-91.1716 1469.66,-94.8264 1469.76,-87.8272"/>
</g>
<!-- SQL&#45;&gt;注入 -->
<g id="edge165" class="edge"><title>SQL&#45;&gt;注入</title>
<path fill="none" stroke="black" d="M1461.17,-160.829C1761.9,-157.174 1764.86,-96.0849 1470.06,-91.2971"/>
<polygon fill="black" stroke="black" points="1469.95,-87.7953 1459.9,-91.156 1469.85,-94.7947 1469.95,-87.7953"/>
</g>
<!-- SQL&#45;&gt;注入 -->
<g id="edge166" class="edge"><title>SQL&#45;&gt;注入</title>
<path fill="none" stroke="black" d="M1461.18,-160.846C1779.84,-157.359 1782.86,-95.8544 1470.23,-91.2699"/>
<polygon fill="black" stroke="black" points="1469.98,-87.7665 1459.93,-91.1408 1469.89,-94.766 1469.98,-87.7665"/>
</g>
</g>
</svg>
