<?xml version="1.0" encoding="UTF-8" standalone="no"?>
<!DOCTYPE svg PUBLIC "-//W3C//DTD SVG 1.1//EN"
 "http://www.w3.org/Graphics/SVG/1.1/DTD/svg11.dtd">
<!-- Generated by graphviz version 2.38.0 (20140413.2041)
 -->
<!-- Title: G Pages: 1 -->
<svg width="2524pt" height="332pt"
 viewBox="0.00 0.00 2524.41 332.00" xmlns="http://www.w3.org/2000/svg" xmlns:xlink="http://www.w3.org/1999/xlink">
<g id="graph0" class="graph" transform="scale(1 1) rotate(0) translate(4 328)">
<title>G</title>
<polygon fill="white" stroke="none" points="-4,4 -4,-328 2520.41,-328 2520.41,4 -4,4"/>
<!-- Smart Power Grid -->
<g id="node1" class="node"><title>Smart Power Grid</title>
<polygon fill="none" stroke="black" points="1491.17,-324 1381.91,-306 1491.17,-288 1600.43,-306 1491.17,-324"/>
<polyline fill="none" stroke="black" points="1393.75,-307.951 1393.75,-304.049 "/>
<polyline fill="none" stroke="black" points="1479.33,-289.951 1503.01,-289.951 "/>
<polyline fill="none" stroke="black" points="1588.59,-304.049 1588.59,-307.951 "/>
<polyline fill="none" stroke="black" points="1503.01,-322.049 1479.33,-322.049 "/>
<text text-anchor="middle" x="1491.17" y="-302.3" font-family="Times New Roman,serif" font-size="14.00">Smart Power Grid</text>
</g>
<!-- WebAccess -->
<g id="node2" class="node"><title>WebAccess</title>
<ellipse fill="none" stroke="black" cx="1015.17" cy="-234" rx="55.4913" ry="18"/>
<text text-anchor="middle" x="1015.17" y="-230.3" font-family="Times New Roman,serif" font-size="14.00">WebAccess</text>
</g>
<!-- Smart Power Grid&#45;&gt;WebAccess -->
<g id="edge19" class="edge"><title>Smart Power Grid&#45;&gt;WebAccess</title>
<path fill="none" stroke="black" d="M1436.56,-296.97C1346.53,-283.73 1167.66,-257.426 1074.58,-243.737"/>
<polygon fill="black" stroke="black" points="1074.88,-240.244 1064.48,-242.252 1073.86,-247.169 1074.88,-240.244"/>
</g>
<!-- SQL -->
<g id="node3" class="node"><title>SQL</title>
<ellipse fill="none" stroke="black" cx="270.167" cy="-162" rx="28.6953" ry="18"/>
<text text-anchor="middle" x="270.167" y="-158.3" font-family="Times New Roman,serif" font-size="14.00">SQL</text>
</g>
<!-- Smart Power Grid&#45;&gt;SQL -->
<g id="edge116" class="edge"><title>Smart Power Grid&#45;&gt;SQL</title>
<path fill="none" stroke="black" d="M1394.94,-303.827C1179.66,-300.563 664.767,-289.022 495.167,-252 422.634,-236.167 343.013,-199.777 300.661,-178.76"/>
<polygon fill="black" stroke="black" points="301.971,-175.502 291.463,-174.146 298.832,-181.758 301.971,-175.502"/>
</g>
<!-- PowerSCADA -->
<g id="node4" class="node"><title>PowerSCADA</title>
<ellipse fill="none" stroke="black" cx="560.167" cy="-90" rx="64.9885" ry="18"/>
<text text-anchor="middle" x="560.167" y="-86.3" font-family="Times New Roman,serif" font-size="14.00">PowerSCADA</text>
</g>
<!-- Smart Power Grid&#45;&gt;PowerSCADA -->
<g id="edge12" class="edge"><title>Smart Power Grid&#45;&gt;PowerSCADA</title>
<path fill="none" stroke="black" d="M1413.03,-300.804C1193.79,-288.225 585.125,-247.472 528.167,-180 512.667,-161.638 525.345,-135.186 539.051,-115.893"/>
<polygon fill="black" stroke="black" points="541.891,-117.94 545.115,-107.847 536.301,-113.726 541.891,-117.94"/>
</g>
<!-- PowerHMI -->
<g id="node5" class="node"><title>PowerHMI</title>
<ellipse fill="none" stroke="black" cx="1491.17" cy="-162" rx="51.1914" ry="18"/>
<text text-anchor="middle" x="1491.17" y="-158.3" font-family="Times New Roman,serif" font-size="14.00">PowerHMI</text>
</g>
<!-- Smart Power Grid&#45;&gt;PowerHMI -->
<g id="edge178" class="edge"><title>Smart Power Grid&#45;&gt;PowerHMI</title>
<path fill="none" stroke="black" d="M1491.17,-287.871C1491.17,-263.67 1491.17,-219.211 1491.17,-190.393"/>
<polygon fill="black" stroke="black" points="1494.67,-190.189 1491.17,-180.189 1487.67,-190.189 1494.67,-190.189"/>
</g>
<!-- Meter -->
<g id="node6" class="node"><title>Meter</title>
<ellipse fill="none" stroke="black" cx="193.167" cy="-90" rx="31.6951" ry="18"/>
<text text-anchor="middle" x="193.167" y="-86.3" font-family="Times New Roman,serif" font-size="14.00">Meter</text>
</g>
<!-- Smart Power Grid&#45;&gt;Meter -->
<g id="edge5" class="edge"><title>Smart Power Grid&#45;&gt;Meter</title>
<path fill="none" stroke="black" d="M1386.25,-305.21C1147.92,-304.843 571.874,-298.952 384.167,-252 311.65,-233.861 284.242,-233.628 232.167,-180 215.431,-162.765 205.246,-137.165 199.503,-117.839"/>
<polygon fill="black" stroke="black" points="202.854,-116.824 196.825,-108.112 196.105,-118.682 202.854,-116.824"/>
</g>
<!-- AMI -->
<g id="node10" class="node"><title>AMI</title>
<ellipse fill="none" stroke="black" cx="1530.17" cy="-90" rx="27.8951" ry="18"/>
<text text-anchor="middle" x="1530.17" y="-86.3" font-family="Times New Roman,serif" font-size="14.00">AMI</text>
</g>
<!-- Smart Power Grid&#45;&gt;AMI -->
<g id="edge17" class="edge"><title>Smart Power Grid&#45;&gt;AMI</title>
<path fill="none" stroke="black" d="M1501.35,-289.662C1515.8,-266.884 1541.55,-222.249 1551.17,-180 1554.72,-164.399 1554.17,-159.716 1551.17,-144 1549.41,-134.776 1546.07,-125.11 1542.56,-116.596"/>
<polygon fill="black" stroke="black" points="1545.67,-114.978 1538.45,-107.226 1539.26,-117.79 1545.67,-114.978"/>
</g>
<!-- Controller -->
<g id="node16" class="node"><title>Controller</title>
<ellipse fill="none" stroke="black" cx="2296.17" cy="-234" rx="47.3916" ry="18"/>
<text text-anchor="middle" x="2296.17" y="-230.3" font-family="Times New Roman,serif" font-size="14.00">Controller</text>
</g>
<!-- Smart Power Grid&#45;&gt;Controller -->
<g id="edge158" class="edge"><title>Smart Power Grid&#45;&gt;Controller</title>
<path fill="none" stroke="black" d="M1558.76,-299.122C1714.39,-285.589 2095.69,-252.433 2239.78,-239.903"/>
<polygon fill="black" stroke="black" points="2240.49,-243.355 2250.15,-239.002 2239.88,-236.381 2240.49,-243.355"/>
</g>
<!-- PLC -->
<g id="node17" class="node"><title>PLC</title>
<ellipse fill="none" stroke="black" cx="1889.17" cy="-234" rx="27.8951" ry="18"/>
<text text-anchor="middle" x="1889.17" y="-230.3" font-family="Times New Roman,serif" font-size="14.00">PLC</text>
</g>
<!-- Smart Power Grid&#45;&gt;PLC -->
<g id="edge180" class="edge"><title>Smart Power Grid&#45;&gt;PLC</title>
<path fill="none" stroke="black" d="M1541.17,-296.205C1622.36,-281.926 1780.97,-254.03 1852.56,-241.439"/>
<polygon fill="black" stroke="black" points="1853.23,-244.875 1862.47,-239.696 1852.01,-237.981 1853.23,-244.875"/>
</g>
<!-- RTU -->
<g id="node18" class="node"><title>RTU</title>
<ellipse fill="none" stroke="black" cx="2487.17" cy="-234" rx="29.4969" ry="18"/>
<text text-anchor="middle" x="2487.17" y="-230.3" font-family="Times New Roman,serif" font-size="14.00">RTU</text>
</g>
<!-- Smart Power Grid&#45;&gt;RTU -->
<g id="edge225" class="edge"><title>Smart Power Grid&#45;&gt;RTU</title>
<path fill="none" stroke="black" d="M1574.12,-301.656C1727.82,-295.068 2067.18,-278.688 2352.17,-252 2384.87,-248.938 2421.87,-244.187 2448.86,-240.485"/>
<polygon fill="black" stroke="black" points="2449.62,-243.913 2459.04,-239.073 2448.65,-236.98 2449.62,-243.913"/>
</g>
<!-- WebAccess&#45;&gt;SQL -->
<g id="edge1" class="edge"><title>WebAccess&#45;&gt;SQL</title>
<path fill="none" stroke="black" d="M960.632,-231.002C817.96,-225.438 436.228,-208.285 313.167,-180 309.509,-179.159 305.754,-178.059 302.058,-176.821"/>
<polygon fill="black" stroke="black" points="303.115,-173.481 292.522,-173.31 300.697,-180.05 303.115,-173.481"/>
</g>
<!-- WebAccess&#45;&gt;PowerSCADA -->
<g id="edge2" class="edge"><title>WebAccess&#45;&gt;PowerSCADA</title>
<path fill="none" stroke="black" d="M959.921,-233.27C890.791,-231.647 770.188,-222.243 677.167,-180 654.473,-169.694 653.868,-159.267 634.167,-144 620.539,-133.439 605.087,-122.254 591.84,-112.894"/>
<polygon fill="black" stroke="black" points="593.69,-109.916 583.495,-107.032 589.666,-115.644 593.69,-109.916"/>
</g>
<!-- WebAccess&#45;&gt;PowerHMI -->
<g id="edge3" class="edge"><title>WebAccess&#45;&gt;PowerHMI</title>
<path fill="none" stroke="black" d="M1068.3,-228.695C1147.63,-221.71 1301.48,-206.006 1430.17,-180 1434.59,-179.106 1439.16,-178.062 1443.72,-176.938"/>
<polygon fill="black" stroke="black" points="1444.82,-180.27 1453.63,-174.38 1443.07,-173.493 1444.82,-180.27"/>
</g>
<!-- 泄露 -->
<g id="node7" class="node"><title>泄露</title>
<ellipse fill="none" stroke="black" cx="193.167" cy="-18" rx="27.0966" ry="18"/>
<text text-anchor="middle" x="193.167" y="-14.3" font-family="Times New Roman,serif" font-size="14.00">泄露</text>
</g>
<!-- WebAccess&#45;&gt;泄露 -->
<g id="edge48" class="edge"><title>WebAccess&#45;&gt;泄露</title>
<path fill="none" stroke="black" d="M960.183,-231.78C786.058,-227.084 264.673,-208.98 196.167,-180 152.112,-161.363 135.628,-151.697 116.167,-108 109.657,-93.384 110.994,-87.1408 116.167,-72 122.396,-53.7663 137.728,-36.9406 157.526,-27.3339"/>
<polygon fill="black" stroke="black" points="159.017,-30.5049 166.92,-23.4488 156.342,-24.0362 159.017,-30.5049"/>
</g>
<!-- WebAccess&#45;&gt;泄露 -->
<g id="edge49" class="edge"><title>WebAccess&#45;&gt;泄露</title>
<path fill="none" stroke="black" d="M960.389,-231.588C790.408,-226.606 281.771,-208.598 214.167,-180 170.112,-161.363 153.628,-151.697 134.167,-108 127.657,-93.384 128.994,-87.1408 134.167,-72 139.148,-57.4206 149.948,-43.7414 161.706,-33.933"/>
<polygon fill="black" stroke="black" points="164.012,-36.5794 169.939,-27.7974 159.829,-30.9665 164.012,-36.5794"/>
</g>
<!-- WebAccess&#45;&gt;泄露 -->
<g id="edge75" class="edge"><title>WebAccess&#45;&gt;泄露</title>
<path fill="none" stroke="black" d="M960.507,-231.363C793.749,-226.081 298.79,-208.184 232.167,-180 188.112,-161.363 171.628,-151.697 152.167,-108 145.657,-93.384 146.994,-87.1408 152.167,-72 156.083,-60.5374 163.596,-49.6312 171.133,-40.7252"/>
<polygon fill="black" stroke="black" points="173.865,-42.9221 177.958,-33.1499 168.664,-38.2365 173.865,-42.9221"/>
</g>
<!-- WebAccess&#45;&gt;泄露 -->
<g id="edge77" class="edge"><title>WebAccess&#45;&gt;泄露</title>
<path fill="none" stroke="black" d="M960.516,-231.101C796.126,-225.51 315.732,-207.736 250.167,-180 206.112,-161.363 189.628,-151.697 170.167,-108 163.657,-93.384 164.994,-87.1408 170.167,-72 173.536,-62.1371 179.569,-52.6861 185.217,-44.5668"/>
<polygon fill="black" stroke="black" points="188.131,-46.5076 191.05,-36.3227 182.417,-42.4646 188.131,-46.5076"/>
</g>
<!-- WebAccess&#45;&gt;泄露 -->
<g id="edge110" class="edge"><title>WebAccess&#45;&gt;泄露</title>
<path fill="none" stroke="black" d="M960.684,-230.81C798.152,-224.912 332.634,-207.271 268.167,-180 224.112,-161.363 207.628,-151.697 188.167,-108 181.657,-93.384 182.994,-87.1408 188.167,-72 191.883,-61.1222 198.839,-50.7456 203.91,-42.1038"/>
<polygon fill="black" stroke="black" points="207.057,-43.6375 208.56,-33.1499 200.845,-40.411 207.057,-43.6375"/>
</g>
<!-- 其他 -->
<g id="node8" class="node"><title>其他</title>
<ellipse fill="none" stroke="black" cx="1015.17" cy="-18" rx="27.0966" ry="18"/>
<text text-anchor="middle" x="1015.17" y="-14.3" font-family="Times New Roman,serif" font-size="14.00">其他</text>
</g>
<!-- WebAccess&#45;&gt;其他 -->
<g id="edge22" class="edge"><title>WebAccess&#45;&gt;其他</title>
<path fill="none" stroke="black" d="M960.714,-230.812C703.749,-209.224 709.441,-34.8202 977.792,-20.0026"/>
<polygon fill="black" stroke="black" points="978.037,-23.495 987.861,-19.5269 977.707,-16.5028 978.037,-23.495"/>
</g>
<!-- WebAccess&#45;&gt;其他 -->
<g id="edge32" class="edge"><title>WebAccess&#45;&gt;其他</title>
<path fill="none" stroke="black" d="M960.594,-230.523C721.775,-207.778 727.491,-35.7291 977.742,-20.131"/>
<polygon fill="black" stroke="black" points="978.103,-23.6168 987.903,-19.5903 977.731,-16.6267 978.103,-23.6168"/>
</g>
<!-- WebAccess&#45;&gt;其他 -->
<g id="edge39" class="edge"><title>WebAccess&#45;&gt;其他</title>
<path fill="none" stroke="black" d="M960.871,-230.216C739.82,-206.356 745.403,-36.7896 977.621,-20.2904"/>
<polygon fill="black" stroke="black" points="977.998,-23.7741 987.767,-19.6751 977.574,-16.7869 977.998,-23.7741"/>
</g>
<!-- WebAccess&#45;&gt;其他 -->
<g id="edge40" class="edge"><title>WebAccess&#45;&gt;其他</title>
<path fill="none" stroke="black" d="M961.2,-229.851C757.755,-204.763 763.303,-37.8069 977.845,-20.4566"/>
<polygon fill="black" stroke="black" points="978.15,-23.944 987.885,-19.7637 977.668,-16.9606 978.15,-23.944"/>
</g>
<!-- WebAccess&#45;&gt;其他 -->
<g id="edge41" class="edge"><title>WebAccess&#45;&gt;其他</title>
<path fill="none" stroke="black" d="M961.655,-229.42C775.77,-203.026 781.156,-39.1081 977.812,-20.6839"/>
<polygon fill="black" stroke="black" points="978.246,-24.1606 987.936,-19.8766 977.689,-17.1827 978.246,-24.1606"/>
</g>
<!-- WebAccess&#45;&gt;其他 -->
<g id="edge42" class="edge"><title>WebAccess&#45;&gt;其他</title>
<path fill="none" stroke="black" d="M962.018,-228.869C793.734,-200.959 799.046,-40.4917 977.953,-20.9494"/>
<polygon fill="black" stroke="black" points="978.371,-24.4258 988.004,-20.0156 977.723,-17.4558 978.371,-24.4258"/>
</g>
<!-- WebAccess&#45;&gt;其他 -->
<g id="edge44" class="edge"><title>WebAccess&#45;&gt;其他</title>
<path fill="none" stroke="black" d="M962.698,-228.23C811.854,-198.797 816.814,-42.4374 977.58,-21.3529"/>
<polygon fill="black" stroke="black" points="978.331,-24.7912 987.883,-20.2088 977.558,-17.8339 978.331,-24.7912"/>
</g>
<!-- WebAccess&#45;&gt;其他 -->
<g id="edge46" class="edge"><title>WebAccess&#45;&gt;其他</title>
<path fill="none" stroke="black" d="M963.291,-227.386C829.833,-196.153 834.625,-44.3896 977.666,-21.8111"/>
<polygon fill="black" stroke="black" points="978.298,-25.2579 987.745,-20.4624 977.369,-18.3197 978.298,-25.2579"/>
</g>
<!-- WebAccess&#45;&gt;其他 -->
<g id="edge51" class="edge"><title>WebAccess&#45;&gt;其他</title>
<path fill="none" stroke="black" d="M964.637,-226.479C847.772,-193.607 852.17,-46.6965 977.829,-22.4066"/>
<polygon fill="black" stroke="black" points="978.592,-25.8284 987.897,-20.762 977.463,-18.92 978.592,-25.8284"/>
</g>
<!-- WebAccess&#45;&gt;其他 -->
<g id="edge52" class="edge"><title>WebAccess&#45;&gt;其他</title>
<path fill="none" stroke="black" d="M966.349,-225.384C865.663,-190.836 869.587,-49.4077 978.122,-23.1914"/>
<polygon fill="black" stroke="black" points="979.131,-26.558 988.234,-21.1386 977.738,-19.6979 979.131,-26.558"/>
</g>
<!-- WebAccess&#45;&gt;其他 -->
<g id="edge54" class="edge"><title>WebAccess&#45;&gt;其他</title>
<path fill="none" stroke="black" d="M968.551,-224.077C883.519,-187.903 886.829,-52.7521 978.482,-24.2843"/>
<polygon fill="black" stroke="black" points="979.446,-27.65 988.237,-21.7371 977.677,-20.8771 979.446,-27.65"/>
</g>
<!-- WebAccess&#45;&gt;其他 -->
<g id="edge57" class="edge"><title>WebAccess&#45;&gt;其他</title>
<path fill="none" stroke="black" d="M971.631,-222.678C901.301,-185.211 903.762,-56.9532 979.014,-25.84"/>
<polygon fill="black" stroke="black" points="980.247,-29.1174 988.552,-22.54 977.958,-22.5022 980.247,-29.1174"/>
</g>
<!-- WebAccess&#45;&gt;其他 -->
<g id="edge58" class="edge"><title>WebAccess&#45;&gt;其他</title>
<path fill="none" stroke="black" d="M975.558,-221.19C918.996,-182.856 920.404,-62.412 979.781,-28.1655"/>
<polygon fill="black" stroke="black" points="981.462,-31.2412 988.962,-23.7582 978.432,-24.9306 981.462,-31.2412"/>
</g>
<!-- WebAccess&#45;&gt;其他 -->
<g id="edge60" class="edge"><title>WebAccess&#45;&gt;其他</title>
<path fill="none" stroke="black" d="M980.668,-219.935C936.345,-181.418 936.669,-68.6728 981.638,-31.2391"/>
<polygon fill="black" stroke="black" points="983.66,-34.0963 989.891,-25.5274 979.677,-28.3403 983.66,-34.0963"/>
</g>
<!-- WebAccess&#45;&gt;其他 -->
<g id="edge62" class="edge"><title>WebAccess&#45;&gt;其他</title>
<path fill="none" stroke="black" d="M986.401,-218.627C953.242,-180.226 952.762,-75.4248 984.964,-35.1049"/>
<polygon fill="black" stroke="black" points="987.655,-37.3568 992.084,-27.7325 982.62,-32.4937 987.655,-37.3568"/>
</g>
<!-- WebAccess&#45;&gt;其他 -->
<g id="edge78" class="edge"><title>WebAccess&#45;&gt;其他</title>
<path fill="none" stroke="black" d="M992.737,-217.264C969.577,-179.215 968.68,-82.2343 990.045,-39.6178"/>
<polygon fill="black" stroke="black" points="993.115,-41.303 995.274,-30.9304 987.118,-37.6928 993.115,-41.303"/>
</g>
<!-- WebAccess&#45;&gt;其他 -->
<g id="edge80" class="edge"><title>WebAccess&#45;&gt;其他</title>
<path fill="none" stroke="black" d="M999.934,-216.563C985.166,-179.051 984.299,-86.9916 997.331,-43.0717"/>
<polygon fill="black" stroke="black" points="1000.69,-44.0845 1000.73,-33.4897 994.089,-41.7421 1000.69,-44.0845"/>
</g>
<!-- WebAccess&#45;&gt;其他 -->
<g id="edge82" class="edge"><title>WebAccess&#45;&gt;其他</title>
<path fill="none" stroke="black" d="M1007.41,-215.849C1000.29,-178.557 999.789,-89.8764 1005.92,-45.3955"/>
<polygon fill="black" stroke="black" points="1009.4,-45.783 1007.57,-35.3479 1002.49,-44.6481 1009.4,-45.783"/>
</g>
<!-- WebAccess&#45;&gt;其他 -->
<g id="edge88" class="edge"><title>WebAccess&#45;&gt;其他</title>
<path fill="none" stroke="black" d="M1015.17,-215.849C1015.17,-178.832 1015.17,-91.1809 1015.17,-46.3863"/>
<polygon fill="black" stroke="black" points="1018.67,-46.2324 1015.17,-36.2325 1011.67,-46.2325 1018.67,-46.2324"/>
</g>
<!-- WebAccess&#45;&gt;其他 -->
<g id="edge89" class="edge"><title>WebAccess&#45;&gt;其他</title>
<path fill="none" stroke="black" d="M1022.92,-215.849C1030.05,-178.557 1030.54,-89.8764 1024.42,-45.3955"/>
<polygon fill="black" stroke="black" points="1027.84,-44.6481 1022.77,-35.3479 1020.93,-45.783 1027.84,-44.6481"/>
</g>
<!-- WebAccess&#45;&gt;其他 -->
<g id="edge91" class="edge"><title>WebAccess&#45;&gt;其他</title>
<path fill="none" stroke="black" d="M1030.4,-216.563C1045.17,-179.051 1046.03,-86.9916 1033,-43.0717"/>
<polygon fill="black" stroke="black" points="1036.24,-41.7421 1029.6,-33.4897 1029.65,-44.0845 1036.24,-41.7421"/>
</g>
<!-- WebAccess&#45;&gt;其他 -->
<g id="edge94" class="edge"><title>WebAccess&#45;&gt;其他</title>
<path fill="none" stroke="black" d="M1037.6,-217.264C1060.76,-179.215 1061.65,-82.2343 1040.29,-39.6178"/>
<polygon fill="black" stroke="black" points="1043.22,-37.6928 1035.06,-30.9304 1037.22,-41.303 1043.22,-37.6928"/>
</g>
<!-- WebAccess&#45;&gt;其他 -->
<g id="edge95" class="edge"><title>WebAccess&#45;&gt;其他</title>
<path fill="none" stroke="black" d="M1043.93,-218.627C1077.09,-180.226 1077.57,-75.4248 1045.37,-35.1049"/>
<polygon fill="black" stroke="black" points="1047.71,-32.4937 1038.25,-27.7325 1042.68,-37.3568 1047.71,-32.4937"/>
</g>
<!-- WebAccess&#45;&gt;其他 -->
<g id="edge96" class="edge"><title>WebAccess&#45;&gt;其他</title>
<path fill="none" stroke="black" d="M1049.67,-219.935C1093.99,-181.418 1093.66,-68.6728 1048.7,-31.2391"/>
<polygon fill="black" stroke="black" points="1050.66,-28.3403 1040.44,-25.5274 1046.67,-34.0963 1050.66,-28.3403"/>
</g>
<!-- WebAccess&#45;&gt;其他 -->
<g id="edge97" class="edge"><title>WebAccess&#45;&gt;其他</title>
<path fill="none" stroke="black" d="M1054.78,-221.19C1111.34,-182.856 1109.93,-62.412 1050.55,-28.1655"/>
<polygon fill="black" stroke="black" points="1051.9,-24.9306 1041.37,-23.7582 1048.87,-31.2412 1051.9,-24.9306"/>
</g>
<!-- WebAccess&#45;&gt;其他 -->
<g id="edge100" class="edge"><title>WebAccess&#45;&gt;其他</title>
<path fill="none" stroke="black" d="M1058.7,-222.678C1129.03,-185.211 1126.57,-56.9532 1051.32,-25.84"/>
<polygon fill="black" stroke="black" points="1052.38,-22.5022 1041.78,-22.54 1050.09,-29.1174 1052.38,-22.5022"/>
</g>
<!-- WebAccess&#45;&gt;其他 -->
<g id="edge101" class="edge"><title>WebAccess&#45;&gt;其他</title>
<path fill="none" stroke="black" d="M1061.78,-224.077C1146.81,-187.903 1143.5,-52.7521 1051.85,-24.2843"/>
<polygon fill="black" stroke="black" points="1052.66,-20.8771 1042.1,-21.7371 1050.89,-27.65 1052.66,-20.8771"/>
</g>
<!-- WebAccess&#45;&gt;其他 -->
<g id="edge103" class="edge"><title>WebAccess&#45;&gt;其他</title>
<path fill="none" stroke="black" d="M1063.98,-225.384C1164.67,-190.836 1160.75,-49.4077 1052.21,-23.1914"/>
<polygon fill="black" stroke="black" points="1052.6,-19.6979 1042.1,-21.1386 1051.2,-26.558 1052.6,-19.6979"/>
</g>
<!-- WebAccess&#45;&gt;其他 -->
<g id="edge105" class="edge"><title>WebAccess&#45;&gt;其他</title>
<path fill="none" stroke="black" d="M1065.7,-226.479C1182.56,-193.607 1178.16,-46.6965 1052.5,-22.4066"/>
<polygon fill="black" stroke="black" points="1052.87,-18.92 1042.44,-20.762 1051.74,-25.8284 1052.87,-18.92"/>
</g>
<!-- WebAccess&#45;&gt;其他 -->
<g id="edge107" class="edge"><title>WebAccess&#45;&gt;其他</title>
<path fill="none" stroke="black" d="M1067.04,-227.386C1200.5,-196.153 1195.71,-44.3896 1052.67,-21.8111"/>
<polygon fill="black" stroke="black" points="1052.96,-18.3197 1042.59,-20.4624 1052.04,-25.2579 1052.96,-18.3197"/>
</g>
<!-- WebAccess&#45;&gt;其他 -->
<g id="edge108" class="edge"><title>WebAccess&#45;&gt;其他</title>
<path fill="none" stroke="black" d="M1067.64,-228.23C1218.48,-198.797 1213.52,-42.4374 1052.75,-21.3529"/>
<polygon fill="black" stroke="black" points="1052.78,-17.8339 1042.45,-20.2088 1052,-24.7912 1052.78,-17.8339"/>
</g>
<!-- WebAccess&#45;&gt;其他 -->
<g id="edge109" class="edge"><title>WebAccess&#45;&gt;其他</title>
<path fill="none" stroke="black" d="M1068.32,-228.869C1236.6,-200.959 1231.29,-40.4917 1052.38,-20.9494"/>
<polygon fill="black" stroke="black" points="1052.61,-17.4558 1042.33,-20.0156 1051.96,-24.4258 1052.61,-17.4558"/>
</g>
<!-- WebAccess&#45;&gt;其他 -->
<g id="edge111" class="edge"><title>WebAccess&#45;&gt;其他</title>
<path fill="none" stroke="black" d="M1068.68,-229.42C1254.56,-203.026 1249.18,-39.1081 1052.52,-20.6839"/>
<polygon fill="black" stroke="black" points="1052.64,-17.1827 1042.4,-19.8766 1052.09,-24.1606 1052.64,-17.1827"/>
</g>
<!-- WebAccess&#45;&gt;其他 -->
<g id="edge112" class="edge"><title>WebAccess&#45;&gt;其他</title>
<path fill="none" stroke="black" d="M1069.13,-229.851C1272.58,-204.763 1267.03,-37.8069 1052.49,-20.4566"/>
<polygon fill="black" stroke="black" points="1052.67,-16.9606 1042.45,-19.7637 1052.18,-23.944 1052.67,-16.9606"/>
</g>
<!-- WebAccess&#45;&gt;其他 -->
<g id="edge113" class="edge"><title>WebAccess&#45;&gt;其他</title>
<path fill="none" stroke="black" d="M1069.46,-230.216C1290.51,-206.356 1284.93,-36.7896 1052.71,-20.2904"/>
<polygon fill="black" stroke="black" points="1052.76,-16.7869 1042.57,-19.6751 1052.34,-23.7741 1052.76,-16.7869"/>
</g>
<!-- WebAccess&#45;&gt;其他 -->
<g id="edge114" class="edge"><title>WebAccess&#45;&gt;其他</title>
<path fill="none" stroke="black" d="M1069.74,-230.523C1308.56,-207.778 1302.84,-35.7291 1052.59,-20.131"/>
<polygon fill="black" stroke="black" points="1052.6,-16.6267 1042.43,-19.5903 1052.23,-23.6168 1052.6,-16.6267"/>
</g>
<!-- WebAccess&#45;&gt;其他 -->
<g id="edge115" class="edge"><title>WebAccess&#45;&gt;其他</title>
<path fill="none" stroke="black" d="M1069.62,-230.812C1326.59,-209.224 1320.89,-34.8202 1052.54,-20.0026"/>
<polygon fill="black" stroke="black" points="1052.63,-16.5028 1042.47,-19.5269 1052.3,-23.495 1052.63,-16.5028"/>
</g>
<!-- 未授权操作 -->
<g id="node9" class="node"><title>未授权操作</title>
<ellipse fill="none" stroke="black" cx="59.1669" cy="-18" rx="51.9908" ry="18"/>
<text text-anchor="middle" x="59.1669" y="-14.3" font-family="Times New Roman,serif" font-size="14.00">未授权操作</text>
</g>
<!-- WebAccess&#45;&gt;未授权操作 -->
<g id="edge25" class="edge"><title>WebAccess&#45;&gt;未授权操作</title>
<path fill="none" stroke="black" d="M959.995,-232.3C783.404,-229.682 239.608,-218.54 171.167,-180 118.013,-150.069 84.4032,-83.1794 69.0151,-45.72"/>
<polygon fill="black" stroke="black" points="72.0966,-43.9958 65.157,-35.9901 65.5895,-46.5761 72.0966,-43.9958"/>
</g>
<!-- 溢出 -->
<g id="node11" class="node"><title>溢出</title>
<ellipse fill="none" stroke="black" cx="1394.17" cy="-162" rx="27.0966" ry="18"/>
<text text-anchor="middle" x="1394.17" y="-158.3" font-family="Times New Roman,serif" font-size="14.00">溢出</text>
</g>
<!-- WebAccess&#45;&gt;溢出 -->
<g id="edge20" class="edge"><title>WebAccess&#45;&gt;溢出</title>
<path fill="none" stroke="black" d="M959.788,-232.879C686.099,-231.541 864.227,-218.815 1002.17,-180 1020.45,-174.856 1041.53,-163.861 1356.24,-163.048"/>
<polygon fill="black" stroke="black" points="1356.6,-166.547 1366.59,-163.025 1356.59,-159.547 1356.6,-166.547"/>
</g>
<!-- WebAccess&#45;&gt;溢出 -->
<g id="edge24" class="edge"><title>WebAccess&#45;&gt;溢出</title>
<path fill="none" stroke="black" d="M959.926,-232.864C705.39,-231.449 882.728,-218.674 1020.17,-180 1038.41,-174.866 1059.44,-163.905 1356.39,-163.053"/>
<polygon fill="black" stroke="black" points="1356.62,-166.552 1366.62,-163.028 1356.61,-159.552 1356.62,-166.552"/>
</g>
<!-- WebAccess&#45;&gt;溢出 -->
<g id="edge26" class="edge"><title>WebAccess&#45;&gt;溢出</title>
<path fill="none" stroke="black" d="M959.688,-232.843C725.049,-231.329 901.371,-218.493 1038.17,-180 1056.37,-174.877 1077.36,-163.949 1356.74,-163.058"/>
<polygon fill="black" stroke="black" points="1356.8,-166.558 1366.79,-163.031 1356.78,-159.558 1356.8,-166.558"/>
</g>
<!-- WebAccess&#45;&gt;溢出 -->
<g id="edge28" class="edge"><title>WebAccess&#45;&gt;溢出</title>
<path fill="none" stroke="black" d="M959.919,-232.821C744.707,-231.207 920.014,-218.312 1056.17,-180 1074.32,-174.892 1095.23,-164.014 1356.51,-163.066"/>
<polygon fill="black" stroke="black" points="1356.72,-166.566 1366.71,-163.035 1356.7,-159.566 1356.72,-166.566"/>
</g>
<!-- WebAccess&#45;&gt;溢出 -->
<g id="edge29" class="edge"><title>WebAccess&#45;&gt;溢出</title>
<path fill="none" stroke="black" d="M959.992,-232.792C764.73,-231.057 938.8,-218.091 1074.17,-180 1092.27,-174.907 1113.11,-164.08 1356.58,-163.075"/>
<polygon fill="black" stroke="black" points="1356.84,-166.574 1366.83,-163.039 1356.82,-159.574 1356.84,-166.574"/>
</g>
<!-- WebAccess&#45;&gt;溢出 -->
<g id="edge30" class="edge"><title>WebAccess&#45;&gt;溢出</title>
<path fill="none" stroke="black" d="M959.799,-232.752C785.301,-230.864 957.801,-217.809 1092.17,-180 1110.2,-174.925 1130.96,-164.156 1356.6,-163.086"/>
<polygon fill="black" stroke="black" points="1356.81,-166.585 1366.8,-163.045 1356.79,-159.585 1356.81,-166.585"/>
</g>
<!-- WebAccess&#45;&gt;溢出 -->
<g id="edge31" class="edge"><title>WebAccess&#45;&gt;溢出</title>
<path fill="none" stroke="black" d="M959.848,-232.701C806.235,-230.64 976.944,-217.488 1110.17,-180 1128.13,-174.946 1148.8,-164.242 1356.65,-163.099"/>
<polygon fill="black" stroke="black" points="1356.71,-166.599 1366.69,-163.052 1356.67,-159.599 1356.71,-166.599"/>
</g>
<!-- WebAccess&#45;&gt;溢出 -->
<g id="edge33" class="edge"><title>WebAccess&#45;&gt;溢出</title>
<path fill="none" stroke="black" d="M959.875,-232.631C827.893,-230.355 996.374,-217.085 1128.17,-180 1146.05,-174.969 1166.61,-164.339 1356.81,-163.116"/>
<polygon fill="black" stroke="black" points="1356.9,-166.615 1366.88,-163.06 1356.86,-159.615 1356.9,-166.615"/>
</g>
<!-- WebAccess&#45;&gt;溢出 -->
<g id="edge34" class="edge"><title>WebAccess&#45;&gt;溢出</title>
<path fill="none" stroke="black" d="M959.88,-232.528C850.637,-229.976 1016.23,-216.562 1146.17,-180 1163.94,-174.999 1184.36,-164.468 1356.61,-163.139"/>
<polygon fill="black" stroke="black" points="1356.84,-166.637 1366.82,-163.072 1356.79,-159.638 1356.84,-166.637"/>
</g>
<!-- WebAccess&#45;&gt;溢出 -->
<g id="edge35" class="edge"><title>WebAccess&#45;&gt;溢出</title>
<path fill="none" stroke="black" d="M960.139,-232.374C874.819,-229.467 1036.66,-215.879 1164.17,-180 1181.81,-175.034 1202.07,-164.617 1356.53,-163.168"/>
<polygon fill="black" stroke="black" points="1356.93,-166.665 1366.9,-163.086 1356.87,-159.666 1356.93,-166.665"/>
</g>
<!-- WebAccess&#45;&gt;溢出 -->
<g id="edge36" class="edge"><title>WebAccess&#45;&gt;溢出</title>
<path fill="none" stroke="black" d="M1013.53,-215.989C1060.27,-207.812 1124.7,-196.17 1182.17,-180 1199.66,-175.077 1219.72,-164.797 1356.47,-163.208"/>
<polygon fill="black" stroke="black" points="1356.55,-166.708 1366.52,-163.109 1356.48,-159.708 1356.55,-166.708"/>
</g>
<!-- WebAccess&#45;&gt;溢出 -->
<g id="edge37" class="edge"><title>WebAccess&#45;&gt;溢出</title>
<path fill="none" stroke="black" d="M1027.96,-216.413C1076.02,-208.216 1141.7,-196.451 1200.17,-180 1217.46,-175.133 1237.27,-165.027 1356.31,-163.265"/>
<polygon fill="black" stroke="black" points="1356.63,-166.761 1366.58,-163.136 1356.54,-159.762 1356.63,-166.761"/>
</g>
<!-- WebAccess&#45;&gt;溢出 -->
<g id="edge38" class="edge"><title>WebAccess&#45;&gt;溢出</title>
<path fill="none" stroke="black" d="M1038.07,-217.533C1087.9,-209.299 1156.99,-197.215 1218.17,-180 1235.23,-175.198 1254.74,-165.296 1356.52,-163.34"/>
<polygon fill="black" stroke="black" points="1356.69,-166.838 1366.63,-163.176 1356.57,-159.839 1356.69,-166.838"/>
</g>
<!-- WebAccess&#45;&gt;溢出 -->
<g id="edge45" class="edge"><title>WebAccess&#45;&gt;溢出</title>
<path fill="none" stroke="black" d="M1045.98,-218.936C1097.8,-210.693 1171.41,-198.221 1236.17,-180 1252.92,-175.287 1272.02,-165.663 1356.57,-163.457"/>
<polygon fill="black" stroke="black" points="1356.72,-166.955 1366.64,-163.236 1356.57,-159.957 1356.72,-166.955"/>
</g>
<!-- WebAccess&#45;&gt;溢出 -->
<g id="edge47" class="edge"><title>WebAccess&#45;&gt;溢出</title>
<path fill="none" stroke="black" d="M1052.09,-220.519C1106.02,-212.32 1185.13,-199.428 1254.17,-180 1270.46,-175.414 1288.98,-166.179 1356.48,-163.652"/>
<polygon fill="black" stroke="black" points="1356.92,-167.14 1366.8,-163.329 1356.7,-160.144 1356.92,-167.14"/>
</g>
<!-- WebAccess&#45;&gt;溢出 -->
<g id="edge53" class="edge"><title>WebAccess&#45;&gt;溢出</title>
<path fill="none" stroke="black" d="M1057.09,-222.134C1113.16,-214.051 1198.41,-200.755 1272.17,-180 1287.81,-175.598 1305.51,-166.911 1356.55,-163.987"/>
<polygon fill="black" stroke="black" points="1357.02,-167.468 1366.84,-163.496 1356.69,-160.476 1357.02,-167.468"/>
</g>
<!-- WebAccess&#45;&gt;溢出 -->
<g id="edge55" class="edge"><title>WebAccess&#45;&gt;溢出</title>
<path fill="none" stroke="black" d="M1060.98,-223.751C1119.21,-215.87 1211.26,-202.203 1290.17,-180 1304.81,-175.881 1321.24,-168.009 1356.87,-164.619"/>
<polygon fill="black" stroke="black" points="1357.2,-168.103 1366.9,-163.823 1356.65,-161.125 1357.2,-168.103"/>
</g>
<!-- WebAccess&#45;&gt;溢出 -->
<g id="edge59" class="edge"><title>WebAccess&#45;&gt;溢出</title>
<path fill="none" stroke="black" d="M1063.7,-225.336C1124.13,-217.758 1223.69,-203.772 1308.17,-180 1320.96,-176.4 1335.13,-169.934 1356.77,-166.098"/>
<polygon fill="black" stroke="black" points="1357.52,-169.526 1366.89,-164.586 1356.48,-162.603 1357.52,-169.526"/>
</g>
<!-- WebAccess&#45;&gt;溢出 -->
<g id="edge61" class="edge"><title>WebAccess&#45;&gt;溢出</title>
<path fill="none" stroke="black" d="M1066.07,-226.753C1128.93,-219.561 1236.11,-205.34 1326.17,-180 1335.79,-177.293 1346.18,-172.966 1357.61,-169.355"/>
<polygon fill="black" stroke="black" points="1358.8,-172.654 1367.45,-166.541 1356.88,-165.924 1358.8,-172.654"/>
</g>
<!-- WebAccess&#45;&gt;溢出 -->
<g id="edge63" class="edge"><title>WebAccess&#45;&gt;溢出</title>
<path fill="none" stroke="black" d="M1067.61,-228.039C1133.25,-221.322 1248.4,-206.949 1344.17,-180 1349.45,-178.513 1354.97,-176.537 1360.38,-174.459"/>
<polygon fill="black" stroke="black" points="1361.9,-177.621 1369.92,-170.693 1359.33,-171.11 1361.9,-177.621"/>
</g>
<!-- WebAccess&#45;&gt;溢出 -->
<g id="edge64" class="edge"><title>WebAccess&#45;&gt;溢出</title>
<path fill="none" stroke="black" d="M1068.39,-229.162C1137.43,-222.994 1260.68,-208.558 1362.17,-180 1363.42,-179.648 1364.68,-179.268 1365.95,-178.866"/>
<polygon fill="black" stroke="black" points="1367.33,-182.089 1375.58,-175.434 1364.98,-175.496 1367.33,-182.089"/>
</g>
<!-- WebAccess&#45;&gt;溢出 -->
<g id="edge65" class="edge"><title>WebAccess&#45;&gt;溢出</title>
<path fill="none" stroke="black" d="M1069.36,-230.037C1140.72,-224.586 1265.93,-210.843 1374.42,-181.486"/>
<polygon fill="black" stroke="black" points="1375.49,-184.822 1384.2,-178.785 1373.63,-178.075 1375.49,-184.822"/>
</g>
<!-- WebAccess&#45;&gt;溢出 -->
<g id="edge66" class="edge"><title>WebAccess&#45;&gt;溢出</title>
<path fill="none" stroke="black" d="M1069.71,-230.75C1148.92,-225.703 1286.67,-211.374 1398.17,-180 1403.41,-178.525 1408.88,-176.568 1413.11,-174.508"/>
<polygon fill="black" stroke="black" points="1415.78,-176.797 1420.4,-167.265 1410.84,-171.832 1415.78,-176.797"/>
</g>
<!-- WebAccess&#45;&gt;溢出 -->
<g id="edge67" class="edge"><title>WebAccess&#45;&gt;溢出</title>
<path fill="none" stroke="black" d="M1069.93,-231.292C1156.28,-226.78 1300.38,-212.58 1416.17,-180 1429,-176.388 1443.22,-169.892 1431.63,-166.061"/>
<polygon fill="black" stroke="black" points="1432.09,-162.587 1421.62,-164.155 1430.79,-169.463 1432.09,-162.587"/>
</g>
<!-- WebAccess&#45;&gt;溢出 -->
<g id="edge68" class="edge"><title>WebAccess&#45;&gt;溢出</title>
<path fill="none" stroke="black" d="M1070,-231.697C1165,-227.673 1314.67,-213.626 1434.17,-180 1449.31,-175.738 1466.38,-167.459 1431.56,-164.283"/>
<polygon fill="black" stroke="black" points="1431.78,-160.79 1421.56,-163.591 1431.3,-167.773 1431.78,-160.79"/>
</g>
<!-- WebAccess&#45;&gt;溢出 -->
<g id="edge69" class="edge"><title>WebAccess&#45;&gt;溢出</title>
<path fill="none" stroke="black" d="M1070.4,-231.981C1175.47,-228.366 1329.67,-214.471 1452.17,-180 1468.22,-175.482 1486.44,-166.449 1431.82,-163.767"/>
<polygon fill="black" stroke="black" points="1431.73,-160.261 1421.6,-163.368 1431.45,-167.256 1431.73,-160.261"/>
</g>
<!-- WebAccess&#45;&gt;溢出 -->
<g id="edge70" class="edge"><title>WebAccess&#45;&gt;溢出</title>
<path fill="none" stroke="black" d="M1070.21,-232.207C1186.61,-228.972 1344.95,-215.235 1470.17,-180 1486.79,-175.321 1505.74,-165.802 1431.64,-163.506"/>
<polygon fill="black" stroke="black" points="1431.7,-160.007 1421.62,-163.252 1431.52,-167.005 1431.7,-160.007"/>
</g>
<!-- WebAccess&#45;&gt;溢出 -->
<g id="edge71" class="edge"><title>WebAccess&#45;&gt;溢出</title>
<path fill="none" stroke="black" d="M1070.41,-232.364C1199.18,-229.436 1360.81,-215.838 1488.17,-180 1505.15,-175.222 1524.54,-165.397 1431.95,-163.371"/>
<polygon fill="black" stroke="black" points="1431.76,-159.867 1421.7,-163.185 1431.63,-166.865 1431.76,-159.867"/>
</g>
<!-- WebAccess&#45;&gt;溢出 -->
<g id="edge72" class="edge"><title>WebAccess&#45;&gt;溢出</title>
<path fill="none" stroke="black" d="M1070.41,-232.485C1212.46,-229.828 1376.95,-216.361 1506.17,-180 1523.43,-175.143 1543.19,-165.068 1431.7,-163.276"/>
<polygon fill="black" stroke="black" points="1431.66,-159.775 1421.62,-163.14 1431.57,-166.774 1431.66,-159.775"/>
</g>
<!-- WebAccess&#45;&gt;溢出 -->
<g id="edge73" class="edge"><title>WebAccess&#45;&gt;溢出</title>
<path fill="none" stroke="black" d="M1070.39,-232.577C1226.45,-230.153 1393.37,-216.804 1524.17,-180 1541.62,-175.087 1561.64,-164.839 1431.87,-163.218"/>
<polygon fill="black" stroke="black" points="1431.88,-159.718 1421.84,-163.113 1431.8,-166.718 1431.88,-159.718"/>
</g>
<!-- WebAccess&#45;&gt;溢出 -->
<g id="edge74" class="edge"><title>WebAccess&#45;&gt;溢出</title>
<path fill="none" stroke="black" d="M1070.29,-232.649C1240.98,-230.427 1410.02,-217.186 1542.17,-180 1559.79,-175.042 1580.01,-164.649 1431.85,-163.175"/>
<polygon fill="black" stroke="black" points="1431.88,-159.675 1421.85,-163.091 1431.82,-166.675 1431.88,-159.675"/>
</g>
<!-- WebAccess&#45;&gt;溢出 -->
<g id="edge79" class="edge"><title>WebAccess&#45;&gt;溢出</title>
<path fill="none" stroke="black" d="M1070.57,-232.701C1256.23,-230.64 1426.94,-217.488 1560.17,-180 1577.92,-175.004 1598.32,-164.489 1431.7,-163.143"/>
<polygon fill="black" stroke="black" points="1431.54,-159.642 1421.52,-163.073 1431.49,-166.642 1431.54,-159.642"/>
</g>
<!-- WebAccess&#45;&gt;溢出 -->
<g id="edge83" class="edge"><title>WebAccess&#45;&gt;溢出</title>
<path fill="none" stroke="black" d="M1070.5,-232.746C1271.67,-230.837 1443.94,-217.769 1578.17,-180 1596.03,-174.974 1616.57,-164.361 1431.65,-163.119"/>
<polygon fill="black" stroke="black" points="1431.54,-159.619 1421.52,-163.062 1431.5,-166.619 1431.54,-159.619"/>
</g>
<!-- WebAccess&#45;&gt;溢出 -->
<g id="edge84" class="edge"><title>WebAccess&#45;&gt;溢出</title>
<path fill="none" stroke="black" d="M1070.49,-232.781C1287.46,-231.003 1461.09,-218.011 1596.17,-180 1614.12,-174.948 1634.77,-164.253 1431.61,-163.101"/>
<polygon fill="black" stroke="black" points="1431.46,-159.6 1421.45,-163.052 1431.43,-166.6 1431.46,-159.6"/>
</g>
<!-- WebAccess&#45;&gt;溢出 -->
<g id="edge85" class="edge"><title>WebAccess&#45;&gt;溢出</title>
<path fill="none" stroke="black" d="M1070.31,-232.811C1303.44,-231.153 1478.3,-218.232 1614.17,-180 1632.19,-174.928 1652.94,-164.167 1431.74,-163.088"/>
<polygon fill="black" stroke="black" points="1431.73,-159.588 1421.72,-163.046 1431.7,-166.588 1431.73,-159.588"/>
</g>
<!-- WebAccess&#45;&gt;溢出 -->
<g id="edge86" class="edge"><title>WebAccess&#45;&gt;溢出</title>
<path fill="none" stroke="black" d="M1070.39,-232.834C1319.79,-231.275 1495.66,-218.413 1632.17,-180 1650.26,-174.91 1671.09,-164.091 1431.83,-163.077"/>
<polygon fill="black" stroke="black" points="1431.75,-159.576 1421.73,-163.04 1431.72,-166.576 1431.75,-159.576"/>
</g>
<!-- WebAccess&#45;&gt;溢出 -->
<g id="edge87" class="edge"><title>WebAccess&#45;&gt;溢出</title>
<path fill="none" stroke="black" d="M1070.47,-232.853C1336.31,-231.382 1513.08,-218.574 1650.17,-180 1668.32,-174.892 1689.23,-164.014 1431.57,-163.066"/>
<polygon fill="black" stroke="black" points="1431.5,-159.566 1421.49,-163.035 1431.48,-166.566 1431.5,-159.566"/>
</g>
<!-- WebAccess&#45;&gt;溢出 -->
<g id="edge93" class="edge"><title>WebAccess&#45;&gt;溢出</title>
<path fill="none" stroke="black" d="M1070.6,-232.868C1353.02,-231.475 1530.58,-218.714 1668.17,-180 1686.37,-174.879 1707.34,-163.96 1431.78,-163.059"/>
<polygon fill="black" stroke="black" points="1431.44,-159.558 1421.43,-163.031 1431.42,-166.558 1431.44,-159.558"/>
</g>
<!-- WebAccess&#45;&gt;溢出 -->
<g id="edge98" class="edge"><title>WebAccess&#45;&gt;溢出</title>
<path fill="none" stroke="black" d="M1070.41,-232.883C1369.73,-231.568 1548.08,-218.855 1686.17,-180 1704.41,-174.866 1725.44,-163.905 1431.74,-163.053"/>
<polygon fill="black" stroke="black" points="1431.62,-159.553 1421.61,-163.028 1431.6,-166.553 1431.62,-159.553"/>
</g>
<!-- WebAccess&#45;&gt;溢出 -->
<g id="edge99" class="edge"><title>WebAccess&#45;&gt;溢出</title>
<path fill="none" stroke="black" d="M1070.36,-232.895C1386.62,-231.646 1565.66,-218.976 1704.17,-180 1722.45,-174.856 1743.53,-163.861 1431.92,-163.048"/>
<polygon fill="black" stroke="black" points="1431.65,-159.547 1421.65,-163.025 1431.64,-166.547 1431.65,-159.547"/>
</g>
<!-- 注入 -->
<g id="node12" class="node"><title>注入</title>
<ellipse fill="none" stroke="black" cx="270.167" cy="-90" rx="27.0966" ry="18"/>
<text text-anchor="middle" x="270.167" y="-86.3" font-family="Times New Roman,serif" font-size="14.00">注入</text>
</g>
<!-- WebAccess&#45;&gt;注入 -->
<g id="edge21" class="edge"><title>WebAccess&#45;&gt;注入</title>
<path fill="none" stroke="black" d="M959.861,-232.298C848.567,-229.79 631.281,-219.212 456.167,-180 381.68,-163.321 298.772,-132.389 265.481,-111.748"/>
<polygon fill="black" stroke="black" points="267.341,-108.779 257.128,-105.96 263.354,-114.533 267.341,-108.779"/>
</g>
<!-- WebAccess&#45;&gt;注入 -->
<g id="edge43" class="edge"><title>WebAccess&#45;&gt;注入</title>
<path fill="none" stroke="black" d="M960.014,-232.095C855.781,-229.246 644.924,-218.237 474.167,-180 401.279,-163.679 320.326,-133.71 281.489,-113.091"/>
<polygon fill="black" stroke="black" points="282.984,-109.917 272.553,-108.064 279.552,-116.018 282.984,-109.917"/>
</g>
<!-- WebAccess&#45;&gt;注入 -->
<g id="edge50" class="edge"><title>WebAccess&#45;&gt;注入</title>
<path fill="none" stroke="black" d="M960.076,-231.825C861.517,-228.581 657.944,-217.122 492.167,-180 416.671,-163.095 332.523,-131.548 290.813,-110.915"/>
<polygon fill="black" stroke="black" points="292.356,-107.772 281.863,-106.304 289.15,-113.995 292.356,-107.772"/>
</g>
<!-- WebAccess&#45;&gt;注入 -->
<g id="edge81" class="edge"><title>WebAccess&#45;&gt;注入</title>
<path fill="none" stroke="black" d="M960.382,-231.481C866.308,-227.808 670.55,-215.914 510.167,-180 430.907,-162.252 342.111,-128.366 297.493,-107.913"/>
<polygon fill="black" stroke="black" points="298.945,-104.728 288.407,-103.639 295.966,-111.063 298.945,-104.728"/>
</g>
<!-- WebAccess&#45;&gt;注入 -->
<g id="edge90" class="edge"><title>WebAccess&#45;&gt;注入</title>
<path fill="none" stroke="black" d="M960.469,-231.032C869.67,-226.882 682.533,-214.566 528.167,-180 444.249,-161.209 349.641,-124.328 301.681,-104.452"/>
<polygon fill="black" stroke="black" points="303.028,-101.222 292.452,-100.598 300.331,-107.681 303.028,-101.222"/>
</g>
<!-- WebAccess&#45;&gt;注入 -->
<g id="edge92" class="edge"><title>WebAccess&#45;&gt;注入</title>
<path fill="none" stroke="black" d="M960.921,-230.49C872.631,-225.852 694.309,-213.173 546.167,-180 457.555,-160.158 357.023,-120.145 304.529,-101.283"/>
<polygon fill="black" stroke="black" points="305.588,-97.945 294.994,-97.9102 303.254,-104.544 305.588,-97.945"/>
</g>
<!-- WebAccess&#45;&gt;注入 -->
<g id="edge102" class="edge"><title>WebAccess&#45;&gt;注入</title>
<path fill="none" stroke="black" d="M961.201,-229.816C874.708,-224.675 705.669,-211.686 564.167,-180 470.85,-159.104 364.314,-115.839 305.762,-98.4631"/>
<polygon fill="black" stroke="black" points="306.67,-95.0825 296.094,-95.7167 304.757,-101.816 306.67,-95.0825"/>
</g>
<!-- WebAccess&#45;&gt;注入 -->
<g id="edge104" class="edge"><title>WebAccess&#45;&gt;注入</title>
<path fill="none" stroke="black" d="M961.888,-229.04C876.906,-223.415 717.03,-210.199 582.167,-180 484.973,-158.236 373.439,-112.206 306.752,-96.4349"/>
<polygon fill="black" stroke="black" points="307.363,-92.9857 296.844,-94.2528 305.857,-99.8219 307.363,-92.9857"/>
</g>
<!-- WebAccess&#45;&gt;注入 -->
<g id="edge106" class="edge"><title>WebAccess&#45;&gt;注入</title>
<path fill="none" stroke="black" d="M962.848,-228.153C879.225,-222.072 728.39,-208.712 600.167,-180 499.719,-157.507 383.956,-109.096 307.207,-94.9549"/>
<polygon fill="black" stroke="black" points="307.551,-91.4638 297.11,-93.2628 306.394,-98.3675 307.551,-91.4638"/>
</g>
<!-- 权限提升 -->
<g id="node13" class="node"><title>权限提升</title>
<ellipse fill="none" stroke="black" cx="581.167" cy="-162" rx="44.393" ry="18"/>
<text text-anchor="middle" x="581.167" y="-158.3" font-family="Times New Roman,serif" font-size="14.00">权限提升</text>
</g>
<!-- WebAccess&#45;&gt;权限提升 -->
<g id="edge23" class="edge"><title>WebAccess&#45;&gt;权限提升</title>
<path fill="none" stroke="black" d="M962.741,-228.038C889.69,-220.575 753.385,-204.653 639.167,-180 634.478,-178.988 629.613,-177.795 624.786,-176.518"/>
<polygon fill="black" stroke="black" points="625.569,-173.104 614.998,-173.811 623.703,-179.85 625.569,-173.104"/>
</g>
<!-- 验证绕过 -->
<g id="node14" class="node"><title>验证绕过</title>
<ellipse fill="none" stroke="black" cx="1642.17" cy="-162" rx="44.393" ry="18"/>
<text text-anchor="middle" x="1642.17" y="-158.3" font-family="Times New Roman,serif" font-size="14.00">验证绕过</text>
</g>
<!-- WebAccess&#45;&gt;验证绕过 -->
<g id="edge27" class="edge"><title>WebAccess&#45;&gt;验证绕过</title>
<path fill="none" stroke="black" d="M1068.15,-228.874C1163.4,-221.54 1369.29,-204.649 1542.17,-180 1558.22,-177.711 1575.76,-174.586 1591.66,-171.639"/>
<polygon fill="black" stroke="black" points="1592.66,-175.013 1601.85,-169.738 1591.38,-168.132 1592.66,-175.013"/>
</g>
<!-- WebAccess&#45;&gt;验证绕过 -->
<g id="edge76" class="edge"><title>WebAccess&#45;&gt;验证绕过</title>
<path fill="none" stroke="black" d="M1068.87,-229.605C1167.03,-222.706 1381.27,-205.507 1560.17,-180 1571.73,-178.351 1584.07,-176.267 1595.6,-174.129"/>
<polygon fill="black" stroke="black" points="1596.32,-177.555 1605.49,-172.245 1595.01,-170.679 1596.32,-177.555"/>
</g>
<!-- 拒绝服务 -->
<g id="node15" class="node"><title>拒绝服务</title>
<ellipse fill="none" stroke="black" cx="2060.17" cy="-162" rx="44.393" ry="18"/>
<text text-anchor="middle" x="2060.17" y="-158.3" font-family="Times New Roman,serif" font-size="14.00">拒绝服务</text>
</g>
<!-- WebAccess&#45;&gt;拒绝服务 -->
<g id="edge56" class="edge"><title>WebAccess&#45;&gt;拒绝服务</title>
<path fill="none" stroke="black" d="M1068.79,-229.408C1248.35,-217.38 1827.27,-178.601 2006.66,-166.584"/>
<polygon fill="black" stroke="black" points="2007.16,-170.059 2016.9,-165.898 2006.69,-163.074 2007.16,-170.059"/>
</g>
<!-- SQL&#45;&gt;PowerSCADA -->
<g id="edge4" class="edge"><title>SQL&#45;&gt;PowerSCADA</title>
<path fill="none" stroke="black" d="M296.414,-154.665C342.867,-143.452 440.55,-119.873 503.119,-104.77"/>
<polygon fill="black" stroke="black" points="503.946,-108.171 512.846,-102.422 502.304,-101.367 503.946,-108.171"/>
</g>
<!-- SQL&#45;&gt;注入 -->
<g id="edge117" class="edge"><title>SQL&#45;&gt;注入</title>
<path fill="none" stroke="black" d="M241.443,-160.846C-77.2144,-157.359 -80.2298,-95.8544 232.397,-91.2699"/>
<polygon fill="black" stroke="black" points="232.738,-94.766 242.693,-91.1408 232.65,-87.7665 232.738,-94.766"/>
</g>
<!-- SQL&#45;&gt;注入 -->
<g id="edge118" class="edge"><title>SQL&#45;&gt;注入</title>
<path fill="none" stroke="black" d="M241.461,-160.829C-59.2691,-157.174 -62.2349,-96.0849 232.563,-91.2971"/>
<polygon fill="black" stroke="black" points="232.773,-94.7947 242.723,-91.156 232.676,-87.7953 232.773,-94.7947"/>
</g>
<!-- SQL&#45;&gt;注入 -->
<g id="edge119" class="edge"><title>SQL&#45;&gt;注入</title>
<path fill="none" stroke="black" d="M241.186,-160.805C-41.2581,-156.928 -44.1432,-96.368 232.531,-91.3327"/>
<polygon fill="black" stroke="black" points="232.972,-94.8264 242.916,-91.1716 232.863,-87.8272 232.972,-94.8264"/>
</g>
<!-- SQL&#45;&gt;注入 -->
<g id="edge120" class="edge"><title>SQL&#45;&gt;注入</title>
<path fill="none" stroke="black" d="M241.536,-160.787C-23.3166,-156.747 -26.2566,-96.6545 232.716,-91.3705"/>
<polygon fill="black" stroke="black" points="232.899,-94.8679 242.836,-91.1941 232.777,-87.869 232.899,-94.8679"/>
</g>
<!-- SQL&#45;&gt;注入 -->
<g id="edge121" class="edge"><title>SQL&#45;&gt;注入</title>
<path fill="none" stroke="black" d="M241.252,-160.753C-5.22684,-156.445 -8.15959,-97.0455 232.454,-91.426"/>
<polygon fill="black" stroke="black" points="232.672,-94.9224 242.6,-91.2236 232.532,-87.9238 232.672,-94.9224"/>
</g>
<!-- SQL&#45;&gt;注入 -->
<g id="edge122" class="edge"><title>SQL&#45;&gt;注入</title>
<path fill="none" stroke="black" d="M241.59,-160.725C12.7587,-156.208 9.733,-97.437 232.513,-91.4853"/>
<polygon fill="black" stroke="black" points="232.681,-94.9825 242.598,-91.2552 232.521,-87.9843 232.681,-94.9825"/>
</g>
<!-- SQL&#45;&gt;注入 -->
<g id="edge123" class="edge"><title>SQL&#45;&gt;注入</title>
<path fill="none" stroke="black" d="M241.449,-160.68C30.7188,-155.851 27.781,-97.8675 232.636,-91.5562"/>
<polygon fill="black" stroke="black" points="232.963,-95.049 242.868,-91.2882 232.779,-88.0514 232.963,-95.049"/>
</g>
<!-- SQL&#45;&gt;注入 -->
<g id="edge124" class="edge"><title>SQL&#45;&gt;注入</title>
<path fill="none" stroke="black" d="M241.612,-160.632C48.7494,-155.502 45.7329,-98.4066 232.563,-91.6517"/>
<polygon fill="black" stroke="black" points="232.886,-95.1435 242.774,-91.338 232.671,-88.1468 232.886,-95.1435"/>
</g>
<!-- SQL&#45;&gt;注入 -->
<g id="edge125" class="edge"><title>SQL&#45;&gt;注入</title>
<path fill="none" stroke="black" d="M241.503,-160.562C66.6935,-155.038 63.7713,-98.977 232.736,-91.763"/>
<polygon fill="black" stroke="black" points="232.904,-95.2593 242.771,-91.3988 232.65,-88.2639 232.904,-95.2593"/>
</g>
<!-- SQL&#45;&gt;注入 -->
<g id="edge126" class="edge"><title>SQL&#45;&gt;注入</title>
<path fill="none" stroke="black" d="M241.535,-160.477C84.6958,-154.527 81.7667,-99.6911 232.747,-91.9154"/>
<polygon fill="black" stroke="black" points="233.077,-95.4044 242.915,-91.4723 232.772,-88.4111 233.077,-95.4044"/>
</g>
<!-- SQL&#45;&gt;注入 -->
<g id="edge127" class="edge"><title>SQL&#45;&gt;注入</title>
<path fill="none" stroke="black" d="M241.313,-160.352C102.74,-153.857 99.8464,-100.576 232.631,-92.1268"/>
<polygon fill="black" stroke="black" points="233.057,-95.6091 242.855,-91.5782 232.682,-88.6192 233.057,-95.6091"/>
</g>
<!-- SQL&#45;&gt;注入 -->
<g id="edge128" class="edge"><title>SQL&#45;&gt;注入</title>
<path fill="none" stroke="black" d="M241.69,-160.214C120.638,-153.209 117.731,-101.534 232.968,-92.3832"/>
<polygon fill="black" stroke="black" points="233.222,-95.8741 242.966,-91.7142 232.755,-88.8897 233.222,-95.8741"/>
</g>
<!-- SQL&#45;&gt;注入 -->
<g id="edge129" class="edge"><title>SQL&#45;&gt;注入</title>
<path fill="none" stroke="black" d="M241.565,-159.983C138.722,-152.263 135.787,-102.9 232.761,-92.8027"/>
<polygon fill="black" stroke="black" points="233.123,-96.2844 242.781,-91.9276 232.514,-89.311 233.123,-96.2844"/>
</g>
<!-- SQL&#45;&gt;注入 -->
<g id="edge130" class="edge"><title>SQL&#45;&gt;注入</title>
<path fill="none" stroke="black" d="M241.703,-159.664C156.685,-151.155 153.759,-104.522 232.924,-93.3878"/>
<polygon fill="black" stroke="black" points="233.46,-96.8491 242.985,-92.2109 232.646,-89.8965 233.46,-96.8491"/>
</g>
<!-- SQL&#45;&gt;注入 -->
<g id="edge131" class="edge"><title>SQL&#45;&gt;注入</title>
<path fill="none" stroke="black" d="M241.871,-159.164C174.767,-149.746 171.742,-106.827 232.794,-94.3877"/>
<polygon fill="black" stroke="black" points="233.422,-97.8314 242.703,-92.7217 232.261,-90.9283 233.422,-97.8314"/>
</g>
<!-- SQL&#45;&gt;注入 -->
<g id="edge132" class="edge"><title>SQL&#45;&gt;注入</title>
<path fill="none" stroke="black" d="M241.831,-158.256C192.509,-147.685 189.773,-109.514 233.623,-95.8815"/>
<polygon fill="black" stroke="black" points="234.508,-99.268 243.35,-93.4304 232.798,-92.4803 234.508,-99.268"/>
</g>
<!-- SQL&#45;&gt;注入 -->
<g id="edge133" class="edge"><title>SQL&#45;&gt;注入</title>
<path fill="none" stroke="black" d="M242.568,-156.727C210.316,-145.267 207.614,-113.72 234.46,-98.8935"/>
<polygon fill="black" stroke="black" points="235.958,-102.059 243.741,-94.8699 233.174,-95.6366 235.958,-102.059"/>
</g>
<!-- SQL&#45;&gt;注入 -->
<g id="edge134" class="edge"><title>SQL&#45;&gt;注入</title>
<path fill="none" stroke="black" d="M244.323,-153.772C227.45,-142.171 225.146,-119.209 237.411,-104.506"/>
<polygon fill="black" stroke="black" points="239.972,-106.914 245.154,-97.6733 235.34,-101.666 239.972,-106.914"/>
</g>
<!-- SQL&#45;&gt;注入 -->
<g id="edge135" class="edge"><title>SQL&#45;&gt;注入</title>
<path fill="none" stroke="black" d="M249.502,-149.441C242.8,-139.146 241.416,-123.842 245.349,-111.478"/>
<polygon fill="black" stroke="black" points="248.556,-112.883 249.643,-102.344 242.221,-109.905 248.556,-112.883"/>
</g>
<!-- SQL&#45;&gt;注入 -->
<g id="edge136" class="edge"><title>SQL&#45;&gt;注入</title>
<path fill="none" stroke="black" d="M258.727,-145.465C256.707,-136.946 256.173,-126.171 257.123,-116.458"/>
<polygon fill="black" stroke="black" points="260.593,-116.923 258.737,-106.492 253.683,-115.804 260.593,-116.923"/>
</g>
<!-- SQL&#45;&gt;注入 -->
<g id="edge137" class="edge"><title>SQL&#45;&gt;注入</title>
<path fill="none" stroke="black" d="M270.167,-143.697C270.167,-135.983 270.167,-126.712 270.167,-118.112"/>
<polygon fill="black" stroke="black" points="273.667,-118.104 270.167,-108.104 266.667,-118.104 273.667,-118.104"/>
</g>
<!-- SQL&#45;&gt;注入 -->
<g id="edge138" class="edge"><title>SQL&#45;&gt;注入</title>
<path fill="none" stroke="black" d="M281.607,-145.465C283.626,-136.946 284.161,-126.171 283.211,-116.458"/>
<polygon fill="black" stroke="black" points="286.65,-115.804 281.597,-106.492 279.74,-116.923 286.65,-115.804"/>
</g>
<!-- SQL&#45;&gt;注入 -->
<g id="edge139" class="edge"><title>SQL&#45;&gt;注入</title>
<path fill="none" stroke="black" d="M290.832,-149.441C297.534,-139.146 298.918,-123.842 294.985,-111.478"/>
<polygon fill="black" stroke="black" points="298.113,-109.905 290.691,-102.344 291.778,-112.883 298.113,-109.905"/>
</g>
<!-- SQL&#45;&gt;注入 -->
<g id="edge140" class="edge"><title>SQL&#45;&gt;注入</title>
<path fill="none" stroke="black" d="M296.011,-153.772C312.884,-142.171 315.188,-119.209 302.922,-104.506"/>
<polygon fill="black" stroke="black" points="304.994,-101.666 295.18,-97.6733 300.362,-106.914 304.994,-101.666"/>
</g>
<!-- SQL&#45;&gt;注入 -->
<g id="edge141" class="edge"><title>SQL&#45;&gt;注入</title>
<path fill="none" stroke="black" d="M297.766,-156.727C330.018,-145.267 332.72,-113.72 305.873,-98.8935"/>
<polygon fill="black" stroke="black" points="307.16,-95.6366 296.593,-94.8699 304.375,-102.059 307.16,-95.6366"/>
</g>
<!-- SQL&#45;&gt;注入 -->
<g id="edge142" class="edge"><title>SQL&#45;&gt;注入</title>
<path fill="none" stroke="black" d="M298.502,-158.256C347.825,-147.685 350.561,-109.514 306.71,-95.8815"/>
<polygon fill="black" stroke="black" points="307.536,-92.4803 296.984,-93.4304 305.825,-99.268 307.536,-92.4803"/>
</g>
<!-- SQL&#45;&gt;注入 -->
<g id="edge143" class="edge"><title>SQL&#45;&gt;注入</title>
<path fill="none" stroke="black" d="M298.463,-159.164C365.566,-149.746 368.592,-106.827 307.539,-94.3877"/>
<polygon fill="black" stroke="black" points="308.072,-90.9283 297.63,-92.7217 306.912,-97.8314 308.072,-90.9283"/>
</g>
<!-- SQL&#45;&gt;注入 -->
<g id="edge144" class="edge"><title>SQL&#45;&gt;注入</title>
<path fill="none" stroke="black" d="M298.631,-159.664C383.648,-151.155 386.574,-104.522 307.41,-93.3878"/>
<polygon fill="black" stroke="black" points="307.687,-89.8965 297.348,-92.2109 306.874,-96.8491 307.687,-89.8965"/>
</g>
<!-- SQL&#45;&gt;注入 -->
<g id="edge145" class="edge"><title>SQL&#45;&gt;注入</title>
<path fill="none" stroke="black" d="M298.768,-159.983C401.612,-152.263 404.547,-102.9 307.573,-92.8027"/>
<polygon fill="black" stroke="black" points="307.82,-89.311 297.553,-91.9276 307.211,-96.2844 307.82,-89.311"/>
</g>
<!-- SQL&#45;&gt;注入 -->
<g id="edge146" class="edge"><title>SQL&#45;&gt;注入</title>
<path fill="none" stroke="black" d="M298.643,-160.214C419.696,-153.209 422.603,-101.534 307.366,-92.3832"/>
<polygon fill="black" stroke="black" points="307.579,-88.8897 297.367,-91.7142 307.111,-95.8741 307.579,-88.8897"/>
</g>
<!-- SQL&#45;&gt;注入 -->
<g id="edge147" class="edge"><title>SQL&#45;&gt;注入</title>
<path fill="none" stroke="black" d="M299.02,-160.352C437.593,-153.857 440.487,-100.576 307.702,-92.1268"/>
<polygon fill="black" stroke="black" points="307.652,-88.6192 297.479,-91.5782 307.277,-95.6091 307.652,-88.6192"/>
</g>
<!-- SQL&#45;&gt;注入 -->
<g id="edge148" class="edge"><title>SQL&#45;&gt;注入</title>
<path fill="none" stroke="black" d="M298.799,-160.477C455.638,-154.527 458.567,-99.6911 307.586,-91.9154"/>
<polygon fill="black" stroke="black" points="307.562,-88.4111 297.419,-91.4723 307.257,-95.4044 307.562,-88.4111"/>
</g>
<!-- SQL&#45;&gt;注入 -->
<g id="edge149" class="edge"><title>SQL&#45;&gt;注入</title>
<path fill="none" stroke="black" d="M298.831,-160.562C473.64,-155.038 476.562,-98.977 307.598,-91.763"/>
<polygon fill="black" stroke="black" points="307.684,-88.2639 297.563,-91.3988 307.43,-95.2593 307.684,-88.2639"/>
</g>
<!-- SQL&#45;&gt;注入 -->
<g id="edge150" class="edge"><title>SQL&#45;&gt;注入</title>
<path fill="none" stroke="black" d="M298.721,-160.632C491.584,-155.502 494.601,-98.4066 307.771,-91.6517"/>
<polygon fill="black" stroke="black" points="307.663,-88.1468 297.56,-91.338 307.448,-95.1435 307.663,-88.1468"/>
</g>
<!-- SQL&#45;&gt;注入 -->
<g id="edge151" class="edge"><title>SQL&#45;&gt;注入</title>
<path fill="none" stroke="black" d="M298.885,-160.68C509.615,-155.851 512.553,-97.8675 307.698,-91.5562"/>
<polygon fill="black" stroke="black" points="307.554,-88.0514 297.466,-91.2882 307.371,-95.049 307.554,-88.0514"/>
</g>
<!-- SQL&#45;&gt;注入 -->
<g id="edge152" class="edge"><title>SQL&#45;&gt;注入</title>
<path fill="none" stroke="black" d="M298.744,-160.725C527.575,-156.208 530.601,-97.437 307.821,-91.4853"/>
<polygon fill="black" stroke="black" points="307.813,-87.9843 297.735,-91.2552 307.653,-94.9825 307.813,-87.9843"/>
</g>
<!-- SQL&#45;&gt;注入 -->
<g id="edge153" class="edge"><title>SQL&#45;&gt;注入</title>
<path fill="none" stroke="black" d="M299.082,-160.753C545.561,-156.445 548.493,-97.0455 307.88,-91.426"/>
<polygon fill="black" stroke="black" points="307.802,-87.9238 297.734,-91.2236 307.662,-94.9224 307.802,-87.9238"/>
</g>
<!-- SQL&#45;&gt;注入 -->
<g id="edge154" class="edge"><title>SQL&#45;&gt;注入</title>
<path fill="none" stroke="black" d="M298.797,-160.787C563.65,-156.747 566.59,-96.6545 307.618,-91.3705"/>
<polygon fill="black" stroke="black" points="307.557,-87.869 297.498,-91.1941 307.435,-94.8679 307.557,-87.869"/>
</g>
<!-- SQL&#45;&gt;注入 -->
<g id="edge155" class="edge"><title>SQL&#45;&gt;注入</title>
<path fill="none" stroke="black" d="M299.147,-160.805C581.592,-156.928 584.477,-96.368 307.803,-91.3327"/>
<polygon fill="black" stroke="black" points="307.47,-87.8272 297.417,-91.1716 307.362,-94.8264 307.47,-87.8272"/>
</g>
<!-- SQL&#45;&gt;注入 -->
<g id="edge156" class="edge"><title>SQL&#45;&gt;注入</title>
<path fill="none" stroke="black" d="M298.873,-160.829C599.603,-157.174 602.569,-96.0849 307.77,-91.2971"/>
<polygon fill="black" stroke="black" points="307.658,-87.7953 297.61,-91.156 307.561,-94.7947 307.658,-87.7953"/>
</g>
<!-- SQL&#45;&gt;注入 -->
<g id="edge157" class="edge"><title>SQL&#45;&gt;注入</title>
<path fill="none" stroke="black" d="M298.891,-160.846C617.548,-157.359 620.563,-95.8544 307.937,-91.2699"/>
<polygon fill="black" stroke="black" points="307.684,-87.7665 297.641,-91.1408 307.596,-94.766 307.684,-87.7665"/>
</g>
<!-- PowerSCADA&#45;&gt;泄露 -->
<g id="edge13" class="edge"><title>PowerSCADA&#45;&gt;泄露</title>
<path fill="none" stroke="black" d="M508.363,-79.1192C432.935,-64.7324 294.761,-38.3777 229.34,-25.8996"/>
<polygon fill="black" stroke="black" points="229.593,-22.3847 219.114,-23.9491 228.281,-29.2607 229.593,-22.3847"/>
</g>
<!-- PowerSCADA&#45;&gt;其他 -->
<g id="edge14" class="edge"><title>PowerSCADA&#45;&gt;其他</title>
<path fill="none" stroke="black" d="M612.845,-79.4136C706.184,-64.1479 897.212,-34.8878 978.146,-23.5996"/>
<polygon fill="black" stroke="black" points="978.934,-27.0241 988.363,-22.1907 977.978,-20.0897 978.934,-27.0241"/>
</g>
<!-- PowerSCADA&#45;&gt;其他 -->
<g id="edge15" class="edge"><title>PowerSCADA&#45;&gt;其他</title>
<path fill="none" stroke="black" d="M615.504,-80.4866C709.906,-65.9632 899.555,-36.7865 978.93,-24.575"/>
<polygon fill="black" stroke="black" points="979.584,-28.0156 988.935,-23.0356 978.519,-21.097 979.584,-28.0156"/>
</g>
<!-- PowerSCADA&#45;&gt;其他 -->
<g id="edge16" class="edge"><title>PowerSCADA&#45;&gt;其他</title>
<path fill="none" stroke="black" d="M617.601,-81.5088C713.023,-67.8214 900.437,-38.9714 979.324,-25.8076"/>
<polygon fill="black" stroke="black" points="979.995,-29.244 989.275,-24.1322 978.832,-22.3412 979.995,-29.244"/>
</g>
<!-- PowerHMI&#45;&gt;其他 -->
<g id="edge179" class="edge"><title>PowerHMI&#45;&gt;其他</title>
<path fill="none" stroke="black" d="M1472.03,-144.894C1446.61,-124.434 1399.52,-89.668 1353.17,-72 1249.28,-32.4022 1116.62,-22.3755 1052.8,-19.8463"/>
<polygon fill="black" stroke="black" points="1052.55,-16.3353 1042.43,-19.4783 1052.3,-23.3309 1052.55,-16.3353"/>
</g>
<!-- Meter&#45;&gt;泄露 -->
<g id="edge6" class="edge"><title>Meter&#45;&gt;泄露</title>
<path fill="none" stroke="black" d="M187.289,-72.055C186.458,-64.2306 186.221,-54.7484 186.577,-45.9768"/>
<polygon fill="black" stroke="black" points="190.083,-46.0131 187.305,-35.789 183.101,-45.514 190.083,-46.0131"/>
</g>
<!-- Meter&#45;&gt;泄露 -->
<g id="edge9" class="edge"><title>Meter&#45;&gt;泄露</title>
<path fill="none" stroke="black" d="M199.045,-72.055C199.875,-64.2306 200.113,-54.7484 199.757,-45.9768"/>
<polygon fill="black" stroke="black" points="203.233,-45.514 199.028,-35.789 196.25,-46.0131 203.233,-45.514"/>
</g>
<!-- Meter&#45;&gt;其他 -->
<g id="edge7" class="edge"><title>Meter&#45;&gt;其他</title>
<path fill="none" stroke="black" d="M208.477,-74.1698C211.02,-73.3376 213.616,-72.5983 216.167,-72 362.527,-37.6679 839.206,-23.0927 977.587,-19.7673"/>
<polygon fill="black" stroke="black" points="977.786,-23.2637 987.702,-19.5301 977.622,-16.2656 977.786,-23.2637"/>
</g>
<!-- Meter&#45;&gt;其他 -->
<g id="edge8" class="edge"><title>Meter&#45;&gt;其他</title>
<path fill="none" stroke="black" d="M216.581,-77.7637C222.223,-75.487 228.315,-73.3726 234.167,-72 378.125,-38.2311 841.655,-23.5762 977.451,-19.9401"/>
<polygon fill="black" stroke="black" points="977.845,-23.431 987.75,-19.6687 977.661,-16.4334 977.845,-23.431"/>
</g>
<!-- Meter&#45;&gt;其他 -->
<g id="edge11" class="edge"><title>Meter&#45;&gt;其他</title>
<path fill="none" stroke="black" d="M222.215,-82.1894C232.314,-78.5025 242.564,-74.2525 252.167,-72 393.71,-38.7977 844.19,-24.0734 977.834,-20.1324"/>
<polygon fill="black" stroke="black" points="978.088,-23.6266 987.982,-19.8358 977.884,-16.6296 978.088,-23.6266"/>
</g>
<!-- Meter&#45;&gt;未授权操作 -->
<g id="edge10" class="edge"><title>Meter&#45;&gt;未授权操作</title>
<path fill="none" stroke="black" d="M170.436,-77.1255C150.001,-66.4505 119.621,-50.5806 95.7664,-38.1191"/>
<polygon fill="black" stroke="black" points="97.1342,-34.885 86.6502,-33.3569 93.8931,-41.0894 97.1342,-34.885"/>
</g>
<!-- AMI&#45;&gt;其他 -->
<g id="edge18" class="edge"><title>AMI&#45;&gt;其他</title>
<path fill="none" stroke="black" d="M1504.05,-83.0109C1487.99,-79.4719 1466.96,-75.0928 1448.17,-72 1302.51,-48.0289 1127.64,-29.8359 1052.48,-22.5184"/>
<polygon fill="black" stroke="black" points="1052.42,-18.9964 1042.13,-21.5183 1051.75,-25.9639 1052.42,-18.9964"/>
</g>
<!-- Controller&#45;&gt;泄露 -->
<g id="edge161" class="edge"><title>Controller&#45;&gt;泄露</title>
<path fill="none" stroke="black" d="M2268.2,-219.297C2231.53,-199.272 2165.41,-162.401 2104.17,-144 1869.75,-73.5661 1802.05,-92.7395 1558.17,-72 1033.26,-27.3632 392.311,-20.2989 231.204,-19.1992"/>
<polygon fill="black" stroke="black" points="230.889,-15.6972 220.866,-19.1325 230.844,-22.697 230.889,-15.6972"/>
</g>
<!-- Controller&#45;&gt;泄露 -->
<g id="edge164" class="edge"><title>Controller&#45;&gt;泄露</title>
<path fill="none" stroke="black" d="M2276.98,-217.426C2245.52,-197.048 2181.55,-161.842 2122.17,-144 1887.75,-73.5661 1820.05,-92.7395 1576.17,-72 1044.28,-26.77 393.255,-20.1177 231.041,-19.1585"/>
<polygon fill="black" stroke="black" points="230.66,-15.6564 220.641,-19.1009 230.622,-22.6563 230.66,-15.6564"/>
</g>
<!-- Controller&#45;&gt;其他 -->
<g id="edge159" class="edge"><title>Controller&#45;&gt;其他</title>
<path fill="none" stroke="black" d="M2253.28,-226.285C2173.43,-200.509 2127.08,-107.582 2056.17,-72 1961.96,-24.7276 1241.6,-19.3797 1052.58,-18.9572"/>
<polygon fill="black" stroke="black" points="1052.44,-15.457 1042.44,-18.9382 1052.43,-22.457 1052.44,-15.457"/>
</g>
<!-- Controller&#45;&gt;其他 -->
<g id="edge160" class="edge"><title>Controller&#45;&gt;其他</title>
<path fill="none" stroke="black" d="M2255.29,-224.42C2189.31,-196.305 2143.46,-106.772 2074.17,-72 1978.64,-24.0684 1239.39,-19.2387 1052.46,-18.9423"/>
<polygon fill="black" stroke="black" points="1052.46,-15.4424 1042.46,-18.93 1052.45,-22.4424 1052.46,-15.4424"/>
</g>
<!-- Controller&#45;&gt;其他 -->
<g id="edge162" class="edge"><title>Controller&#45;&gt;其他</title>
<path fill="none" stroke="black" d="M2259.23,-222.571C2205.37,-192.573 2160.01,-106.042 2092.17,-72 1995.43,-23.4608 1238.54,-19.1232 1052.69,-18.9331"/>
<polygon fill="black" stroke="black" points="1052.52,-15.4331 1042.52,-18.9264 1052.52,-22.4331 1052.52,-15.4331"/>
</g>
<!-- Controller&#45;&gt;其他 -->
<g id="edge165" class="edge"><title>Controller&#45;&gt;其他</title>
<path fill="none" stroke="black" d="M2264.47,-220.565C2221.42,-188.888 2176.56,-105.313 2110.17,-72 2012.23,-22.8568 1237.6,-19.0221 1052.67,-18.9278"/>
<polygon fill="black" stroke="black" points="1052.58,-15.4279 1042.58,-18.9263 1052.58,-22.4279 1052.58,-15.4279"/>
</g>
<!-- Controller&#45;&gt;其他 -->
<g id="edge166" class="edge"><title>Controller&#45;&gt;其他</title>
<path fill="none" stroke="black" d="M2270.92,-218.411C2237.44,-185.252 2193.1,-104.583 2128.17,-72 2029.08,-22.2802 1237.33,-18.9383 1052.66,-18.926"/>
<polygon fill="black" stroke="black" points="1052.6,-15.4259 1042.6,-18.9287 1052.6,-22.4259 1052.6,-15.4259"/>
</g>
<!-- Controller&#45;&gt;其他 -->
<g id="edge167" class="edge"><title>Controller&#45;&gt;其他</title>
<path fill="none" stroke="black" d="M2279.28,-217.152C2254.34,-183.253 2210.29,-104.178 2146.17,-72 2045.99,-21.7312 1237.76,-18.8702 1052.62,-18.9268"/>
<polygon fill="black" stroke="black" points="1052.55,-15.4267 1042.56,-18.933 1052.56,-22.4267 1052.55,-15.4267"/>
</g>
<!-- Controller&#45;&gt;其他 -->
<g id="edge168" class="edge"><title>Controller&#45;&gt;其他</title>
<path fill="none" stroke="black" d="M2288.38,-216.113C2271.45,-181.664 2227.65,-103.854 2164.17,-72 2063,-21.237 1239.8,-18.8185 1052.84,-18.9292"/>
<polygon fill="black" stroke="black" points="1052.68,-15.4293 1042.68,-18.9382 1052.69,-22.4293 1052.68,-15.4293"/>
</g>
<!-- Controller&#45;&gt;其他 -->
<g id="edge169" class="edge"><title>Controller&#45;&gt;其他</title>
<path fill="none" stroke="black" d="M2298.17,-215.85C2289.22,-181.269 2245.49,-103.773 2182.17,-72 2080.02,-20.7428 1241.71,-18.776 1052.69,-18.9331"/>
<polygon fill="black" stroke="black" points="1052.42,-15.4333 1042.43,-18.9443 1052.43,-22.4333 1052.42,-15.4333"/>
</g>
<!-- Controller&#45;&gt;其他 -->
<g id="edge170" class="edge"><title>Controller&#45;&gt;其他</title>
<path fill="none" stroke="black" d="M2308.1,-216.376C2307.67,-182.061 2263.81,-103.935 2200.17,-72 2097.14,-20.3053 1245.34,-18.746 1052.79,-18.9376"/>
<polygon fill="black" stroke="black" points="1052.58,-15.4378 1042.58,-18.95 1052.59,-22.4377 1052.58,-15.4378"/>
</g>
<!-- Controller&#45;&gt;其他 -->
<g id="edge171" class="edge"><title>Controller&#45;&gt;其他</title>
<path fill="none" stroke="black" d="M2317.51,-217.912C2327,-184.451 2282.78,-104.421 2218.17,-72 2114.33,-19.8948 1249.77,-18.7244 1052.81,-18.9425"/>
<polygon fill="black" stroke="black" points="1052.62,-15.4426 1042.62,-18.9556 1052.63,-22.4426 1052.62,-15.4426"/>
</g>
<!-- Controller&#45;&gt;其他 -->
<g id="edge172" class="edge"><title>Controller&#45;&gt;其他</title>
<path fill="none" stroke="black" d="M2325.76,-219.864C2346.76,-187.671 2302.07,-105.07 2236.17,-72 2131.56,-19.5115 1255,-18.7099 1052.74,-18.9475"/>
<polygon fill="black" stroke="black" points="1052.54,-15.4477 1042.54,-18.9609 1052.55,-22.4477 1052.54,-15.4477"/>
</g>
<!-- Controller&#45;&gt;其他 -->
<g id="edge174" class="edge"><title>Controller&#45;&gt;其他</title>
<path fill="none" stroke="black" d="M2332.31,-222.138C2366.94,-191.75 2321.69,-105.88 2254.17,-72 2148.91,-19.1828 1262,-18.7019 1052.94,-18.9521"/>
<polygon fill="black" stroke="black" points="1052.65,-15.4523 1042.66,-18.9655 1052.66,-22.4523 1052.65,-15.4523"/>
</g>
<!-- Controller&#45;&gt;其他 -->
<g id="edge177" class="edge"><title>Controller&#45;&gt;其他</title>
<path fill="none" stroke="black" d="M2336.82,-224.42C2387.31,-196.305 2341.46,-106.772 2272.17,-72 2166.25,-18.8549 1268.95,-18.698 1052.78,-18.9568"/>
<polygon fill="black" stroke="black" points="1052.71,-15.4568 1042.71,-18.9696 1052.72,-22.4568 1052.71,-15.4568"/>
</g>
<!-- Controller&#45;&gt;溢出 -->
<g id="edge173" class="edge"><title>Controller&#45;&gt;溢出</title>
<path fill="none" stroke="black" d="M2249.35,-230.778C2073.66,-222.048 1462.34,-190.085 1422.17,-180 1421.7,-179.884 1421.24,-179.762 1420.78,-179.635"/>
<polygon fill="black" stroke="black" points="1421.69,-176.247 1411.09,-176.314 1419.42,-182.869 1421.69,-176.247"/>
</g>
<!-- Controller&#45;&gt;溢出 -->
<g id="edge176" class="edge"><title>Controller&#45;&gt;溢出</title>
<path fill="none" stroke="black" d="M2249.53,-230.44C2076.49,-221.253 1479.84,-189.959 1440.17,-180 1435.81,-178.905 1431.33,-177.306 1426.92,-175.519"/>
<polygon fill="black" stroke="black" points="1428.04,-172.188 1417.47,-171.434 1425.26,-178.613 1428.04,-172.188"/>
</g>
<!-- Controller&#45;&gt;验证绕过 -->
<g id="edge163" class="edge"><title>Controller&#45;&gt;验证绕过</title>
<path fill="none" stroke="black" d="M2251.21,-228.189C2134.02,-215.645 1819.6,-181.991 1694.53,-168.605"/>
<polygon fill="black" stroke="black" points="1694.75,-165.109 1684.44,-167.524 1694.01,-172.069 1694.75,-165.109"/>
</g>
<!-- Controller&#45;&gt;拒绝服务 -->
<g id="edge175" class="edge"><title>Controller&#45;&gt;拒绝服务</title>
<path fill="none" stroke="black" d="M2260.07,-222.292C2218.29,-209.901 2149.49,-189.495 2104.5,-176.151"/>
<polygon fill="black" stroke="black" points="2105.31,-172.739 2094.73,-173.251 2103.32,-179.45 2105.31,-172.739"/>
</g>
<!-- PLC&#45;&gt;泄露 -->
<g id="edge218" class="edge"><title>PLC&#45;&gt;泄露</title>
<path fill="none" stroke="black" d="M1864.14,-225.453C1838.2,-216.916 1797.19,-201.368 1766.17,-180 1747.79,-167.342 1751.35,-153.511 1731.17,-144 1661.02,-110.949 459.27,-35.4084 230.583,-21.2941"/>
<polygon fill="black" stroke="black" points="230.634,-17.7906 220.438,-20.6688 230.203,-24.7774 230.634,-17.7906"/>
</g>
<!-- PLC&#45;&gt;其他 -->
<g id="edge181" class="edge"><title>PLC&#45;&gt;其他</title>
<path fill="none" stroke="black" d="M1861.42,-231.465C1777.95,-222.136 1721.04,-172.512 1667.17,-144 1584.04,-100.004 1559.93,-92.6577 1468.17,-72 1318.42,-38.287 1141.09,-26.0093 1052.53,-21.5437"/>
<polygon fill="black" stroke="black" points="1052.59,-18.0427 1042.43,-21.0491 1052.25,-25.0344 1052.59,-18.0427"/>
</g>
<!-- PLC&#45;&gt;其他 -->
<g id="edge183" class="edge"><title>PLC&#45;&gt;其他</title>
<path fill="none" stroke="black" d="M1861.39,-230.768C1793.37,-219.894 1737.82,-171.865 1685.17,-144 1602.04,-100.004 1577.93,-92.6577 1486.17,-72 1328.74,-36.5581 1140.83,-24.8064 1052.57,-20.9164"/>
<polygon fill="black" stroke="black" points="1052.7,-17.419 1042.56,-20.4904 1052.4,-24.4127 1052.7,-17.419"/>
</g>
<!-- PLC&#45;&gt;其他 -->
<g id="edge191" class="edge"><title>PLC&#45;&gt;其他</title>
<path fill="none" stroke="black" d="M1861.84,-229.652C1807.93,-216.938 1754.19,-171.002 1703.17,-144 1620.04,-100.004 1595.93,-92.6577 1504.17,-72 1339,-34.8162 1140.28,-23.7085 1052.46,-20.398"/>
<polygon fill="black" stroke="black" points="1052.43,-16.8947 1042.31,-20.0317 1052.18,-23.8901 1052.43,-16.8947"/>
</g>
<!-- PLC&#45;&gt;其他 -->
<g id="edge196" class="edge"><title>PLC&#45;&gt;其他</title>
<path fill="none" stroke="black" d="M1862.66,-227.708C1821.03,-212.782 1769.86,-169.769 1721.17,-144 1638.04,-100.004 1613.93,-92.6577 1522.17,-72 1349.56,-33.1399 1140.29,-22.7599 1052.61,-19.9961"/>
<polygon fill="black" stroke="black" points="1052.63,-16.4952 1042.53,-19.6954 1052.42,-23.4921 1052.63,-16.4952"/>
</g>
<!-- PLC&#45;&gt;其他 -->
<g id="edge197" class="edge"><title>PLC&#45;&gt;其他</title>
<path fill="none" stroke="black" d="M1864.71,-224.607C1832.67,-207.498 1784.83,-168.166 1739.17,-144 1656.04,-100.004 1631.93,-92.6577 1540.17,-72 1360.33,-31.5144 1140.72,-21.9414 1052.73,-19.6877"/>
<polygon fill="black" stroke="black" points="1052.74,-16.1871 1042.66,-19.4476 1052.57,-23.1851 1052.74,-16.1871"/>
</g>
<!-- PLC&#45;&gt;其他 -->
<g id="edge200" class="edge"><title>PLC&#45;&gt;其他</title>
<path fill="none" stroke="black" d="M1869.55,-220.921C1844.33,-202.347 1799.8,-166.563 1757.17,-144 1674.04,-100.004 1649.93,-92.6577 1558.17,-72 1371.34,-29.9396 1141.58,-21.2435 1052.62,-19.4566"/>
<polygon fill="black" stroke="black" points="1052.55,-15.9547 1042.48,-19.2711 1052.42,-22.9535 1052.55,-15.9547"/>
</g>
<!-- PLC&#45;&gt;其他 -->
<g id="edge204" class="edge"><title>PLC&#45;&gt;其他</title>
<path fill="none" stroke="black" d="M1877.34,-217.391C1856.99,-198.093 1815.24,-165.207 1775.17,-144 1692.04,-100.004 1667.93,-92.6577 1576.17,-72 1383.05,-28.524 1144.06,-20.6959 1052.8,-19.2986"/>
<polygon fill="black" stroke="black" points="1052.71,-15.7972 1042.67,-19.1611 1052.62,-22.7966 1052.71,-15.7972"/>
</g>
<!-- PLC&#45;&gt;其他 -->
<g id="edge206" class="edge"><title>PLC&#45;&gt;其他</title>
<path fill="none" stroke="black" d="M1888.52,-215.674C1872.56,-196.191 1832.07,-164.59 1793.17,-144 1710.04,-100.004 1685.93,-92.6577 1594.17,-72 1395.2,-27.2073 1147.55,-20.2544 1052.72,-19.1885"/>
<polygon fill="black" stroke="black" points="1052.48,-15.6862 1042.45,-19.0897 1052.42,-22.6859 1052.48,-15.6862"/>
</g>
<!-- PLC&#45;&gt;其他 -->
<g id="edge207" class="edge"><title>PLC&#45;&gt;其他</title>
<path fill="none" stroke="black" d="M1902.74,-218.059C1893.96,-198.859 1851.7,-165.453 1811.17,-144 1728.04,-100.004 1703.93,-92.6577 1612.17,-72 1408.06,-26.0499 1152.72,-19.9204 1052.67,-19.1172"/>
<polygon fill="black" stroke="black" points="1052.66,-15.6171 1042.64,-19.0504 1052.62,-22.617 1052.66,-15.6171"/>
</g>
<!-- PLC&#45;&gt;其他 -->
<g id="edge208" class="edge"><title>PLC&#45;&gt;其他</title>
<path fill="none" stroke="black" d="M1913.89,-225.377C1924.14,-208.705 1875.53,-168.536 1829.17,-144 1746.04,-100.004 1721.93,-92.6577 1630.17,-72 1421.79,-25.0873 1160,-19.681 1052.87,-19.0734"/>
<polygon fill="black" stroke="black" points="1052.71,-15.5727 1042.69,-19.0273 1052.68,-22.5726 1052.71,-15.5727"/>
</g>
<!-- PLC&#45;&gt;其他 -->
<g id="edge209" class="edge"><title>PLC&#45;&gt;其他</title>
<path fill="none" stroke="black" d="M1916.66,-229.295C1950.95,-216.1 1897.72,-170.755 1847.17,-144 1764.04,-100.004 1739.93,-92.6577 1648.17,-72 1435.96,-24.2269 1168.37,-19.4967 1052.76,-19.0446"/>
<polygon fill="black" stroke="black" points="1052.73,-15.5445 1042.72,-19.0143 1052.7,-22.5445 1052.73,-15.5445"/>
</g>
<!-- PLC&#45;&gt;其他 -->
<g id="edge219" class="edge"><title>PLC&#45;&gt;其他</title>
<path fill="none" stroke="black" d="M1916.8,-230.91C1973.86,-220.319 1918.05,-171.988 1865.17,-144 1782.04,-100.004 1757.93,-92.6577 1666.17,-72 1450.8,-23.5138 1178.37,-19.365 1052.75,-19.027"/>
<polygon fill="black" stroke="black" points="1052.52,-15.5267 1042.51,-19.0067 1052.5,-22.5267 1052.52,-15.5267"/>
</g>
<!-- PLC&#45;&gt;溢出 -->
<g id="edge184" class="edge"><title>PLC&#45;&gt;溢出</title>
<path fill="none" stroke="black" d="M1861.02,-233.006C1763.88,-232.848 1536.07,-229.521 1359.17,-180 1345.96,-176.302 1331.51,-168.441 1356.66,-164.854"/>
<polygon fill="black" stroke="black" points="1357.18,-168.32 1366.77,-163.814 1356.46,-161.357 1357.18,-168.32"/>
</g>
<!-- PLC&#45;&gt;溢出 -->
<g id="edge188" class="edge"><title>PLC&#45;&gt;溢出</title>
<path fill="none" stroke="black" d="M1861.23,-232.993C1773.46,-232.709 1550.79,-228.604 1377.17,-180 1370.53,-178.142 1363.58,-175.233 1360.5,-172.344"/>
<polygon fill="black" stroke="black" points="1363.14,-174.642 1367.07,-164.803 1357.87,-170.045 1363.14,-174.642"/>
</g>
<!-- PLC&#45;&gt;溢出 -->
<g id="edge189" class="edge"><title>PLC&#45;&gt;溢出</title>
<path fill="none" stroke="black" d="M1861.18,-232.965C1782.15,-232.491 1572.73,-227.609 1404.51,-182.554"/>
<polygon fill="black" stroke="black" points="1405.33,-179.15 1394.76,-179.884 1403.48,-185.901 1405.33,-179.15"/>
</g>
<!-- PLC&#45;&gt;溢出 -->
<g id="edge190" class="edge"><title>PLC&#45;&gt;溢出</title>
<path fill="none" stroke="black" d="M1861.01,-232.907C1786.82,-232.145 1585.23,-226.194 1416.79,-180.711"/>
<polygon fill="black" stroke="black" points="1417.59,-177.301 1407.02,-178.018 1415.73,-184.05 1417.59,-177.301"/>
</g>
<!-- PLC&#45;&gt;溢出 -->
<g id="edge195" class="edge"><title>PLC&#45;&gt;溢出</title>
<path fill="none" stroke="black" d="M1861.22,-232.803C1788.79,-231.647 1589.57,-224.343 1431.17,-180 1428.87,-179.357 1426.53,-178.588 1424.21,-177.737"/>
<polygon fill="black" stroke="black" points="1425.44,-174.459 1414.86,-173.895 1422.78,-180.934 1425.44,-174.459"/>
</g>
<!-- PLC&#45;&gt;溢出 -->
<g id="edge199" class="edge"><title>PLC&#45;&gt;溢出</title>
<path fill="none" stroke="black" d="M1861.12,-232.619C1789.9,-230.958 1600.82,-222.455 1449.17,-180 1442.71,-178.192 1435.95,-175.389 1429.1,-172.577"/>
<polygon fill="black" stroke="black" points="1430.28,-169.282 1419.7,-168.83 1427.69,-175.784 1430.28,-169.282"/>
</g>
<!-- PLC&#45;&gt;溢出 -->
<g id="edge201" class="edge"><title>PLC&#45;&gt;溢出</title>
<path fill="none" stroke="black" d="M1861.24,-232.337C1790.2,-230.083 1611.69,-220.459 1467.17,-180 1456.79,-177.096 1445.66,-171.626 1430.76,-167.674"/>
<polygon fill="black" stroke="black" points="1431.49,-164.251 1420.96,-165.446 1429.94,-171.077 1431.49,-164.251"/>
</g>
<!-- PLC&#45;&gt;溢出 -->
<g id="edge202" class="edge"><title>PLC&#45;&gt;溢出</title>
<path fill="none" stroke="black" d="M1861.28,-231.922C1789.73,-228.999 1622.18,-218.355 1485.17,-180 1472.56,-176.471 1458.83,-169.153 1431.77,-165.374"/>
<polygon fill="black" stroke="black" points="1431.95,-161.872 1421.62,-164.196 1431.15,-168.825 1431.95,-161.872"/>
</g>
<!-- PLC&#45;&gt;溢出 -->
<g id="edge203" class="edge"><title>PLC&#45;&gt;溢出</title>
<path fill="none" stroke="black" d="M1861.25,-231.352C1788.97,-227.713 1632.47,-216.197 1503.17,-180 1489.24,-176.102 1473.95,-167.581 1431.64,-164.313"/>
<polygon fill="black" stroke="black" points="1431.78,-160.814 1421.57,-163.665 1431.33,-167.799 1431.78,-160.814"/>
</g>
<!-- PLC&#45;&gt;注入 -->
<g id="edge205" class="edge"><title>PLC&#45;&gt;注入</title>
<path fill="none" stroke="black" d="M1863.39,-226.983C1832.34,-219.065 1779.22,-203.357 1738.17,-180 1716.5,-167.674 1718.46,-152.859 1695.17,-144 1569.55,-96.2302 620.363,-115.274 486.167,-108 423.187,-104.586 350.044,-98.3512 307.07,-94.4554"/>
<polygon fill="black" stroke="black" points="307.355,-90.9669 297.078,-93.5423 306.718,-97.9379 307.355,-90.9669"/>
</g>
<!-- PLC&#45;&gt;验证绕过 -->
<g id="edge185" class="edge"><title>PLC&#45;&gt;验证绕过</title>
<path fill="none" stroke="black" d="M1862.93,-227.276C1824.65,-217.641 1752.26,-197.519 1691.17,-180 1688.56,-179.253 1685.89,-178.484 1683.21,-177.704"/>
<polygon fill="black" stroke="black" points="1684.08,-174.313 1673.5,-174.858 1682.11,-181.03 1684.08,-174.313"/>
</g>
<!-- PLC&#45;&gt;验证绕过 -->
<g id="edge186" class="edge"><title>PLC&#45;&gt;验证绕过</title>
<path fill="none" stroke="black" d="M1865.03,-224.573C1830.31,-214.208 1765.02,-196.016 1709.17,-180 1702.86,-178.193 1696.18,-176.255 1689.55,-174.358"/>
<polygon fill="black" stroke="black" points="1690.5,-170.989 1679.92,-171.628 1688.59,-177.723 1690.5,-170.989"/>
</g>
<!-- PLC&#45;&gt;拒绝服务 -->
<g id="edge182" class="edge"><title>PLC&#45;&gt;拒绝服务</title>
<path fill="none" stroke="black" d="M1861.2,-232.115C1763.16,-224.981 1874.74,-176.839 2006.03,-165.424"/>
<polygon fill="black" stroke="black" points="2006.64,-168.887 2016.33,-164.608 2006.09,-161.909 2006.64,-168.887"/>
</g>
<!-- PLC&#45;&gt;拒绝服务 -->
<g id="edge187" class="edge"><title>PLC&#45;&gt;拒绝服务</title>
<path fill="none" stroke="black" d="M1861.31,-231.814C1783.41,-223.845 1890,-178.035 2006.29,-165.932"/>
<polygon fill="black" stroke="black" points="2006.86,-169.394 2016.48,-164.961 2006.2,-162.425 2006.86,-169.394"/>
</g>
<!-- PLC&#45;&gt;拒绝服务 -->
<g id="edge192" class="edge"><title>PLC&#45;&gt;拒绝服务</title>
<path fill="none" stroke="black" d="M1861.28,-231.27C1804.95,-222.131 1905,-179.423 2006.34,-166.63"/>
<polygon fill="black" stroke="black" points="2006.93,-170.085 2016.46,-165.454 2006.12,-163.132 2006.93,-170.085"/>
</g>
<!-- PLC&#45;&gt;拒绝服务 -->
<g id="edge193" class="edge"><title>PLC&#45;&gt;拒绝服务</title>
<path fill="none" stroke="black" d="M1861.6,-230.169C1828.66,-219.37 1920.53,-180.702 2007,-167.475"/>
<polygon fill="black" stroke="black" points="2007.56,-170.931 2016.97,-166.062 2006.57,-164 2007.56,-170.931"/>
</g>
<!-- PLC&#45;&gt;拒绝服务 -->
<g id="edge194" class="edge"><title>PLC&#45;&gt;拒绝服务</title>
<path fill="none" stroke="black" d="M1863.78,-226.288C1862.12,-212.541 1939.17,-181.402 2007.59,-168.628"/>
<polygon fill="black" stroke="black" points="2008.36,-172.047 2017.61,-166.881 2007.16,-165.151 2008.36,-172.047"/>
</g>
<!-- PLC&#45;&gt;拒绝服务 -->
<g id="edge198" class="edge"><title>PLC&#45;&gt;拒绝服务</title>
<path fill="none" stroke="black" d="M1882.97,-216.411C1906.02,-201.728 1960.76,-181.002 2008.2,-170.194"/>
<polygon fill="black" stroke="black" points="2009.16,-173.568 2018.2,-168.043 2007.69,-166.724 2009.16,-173.568"/>
</g>
<!-- PLC&#45;&gt;拒绝服务 -->
<g id="edge210" class="edge"><title>PLC&#45;&gt;拒绝服务</title>
<path fill="none" stroke="black" d="M1894.97,-216.233C1919.88,-202.37 1968.98,-183.213 2009.75,-172.062"/>
<polygon fill="black" stroke="black" points="2010.86,-175.389 2019.65,-169.474 2009.09,-168.617 2010.86,-175.389"/>
</g>
<!-- PLC&#45;&gt;拒绝服务 -->
<g id="edge211" class="edge"><title>PLC&#45;&gt;拒绝服务</title>
<path fill="none" stroke="black" d="M1902.89,-218.155C1928.43,-205.003 1975.34,-186.091 2012.44,-174.181"/>
<polygon fill="black" stroke="black" points="2013.62,-177.479 2022.13,-171.165 2011.54,-170.796 2013.62,-177.479"/>
</g>
<!-- PLC&#45;&gt;拒绝服务 -->
<g id="edge212" class="edge"><title>PLC&#45;&gt;拒绝服务</title>
<path fill="none" stroke="black" d="M1908.42,-220.807C1934.7,-208.49 1980.95,-189.499 2015.79,-176.677"/>
<polygon fill="black" stroke="black" points="2017.08,-179.933 2025.29,-173.235 2014.69,-173.352 2017.08,-179.933"/>
</g>
<!-- PLC&#45;&gt;拒绝服务 -->
<g id="edge213" class="edge"><title>PLC&#45;&gt;拒绝服务</title>
<path fill="none" stroke="black" d="M1912.23,-223.559C1939.94,-212.215 1986.9,-192.993 2020.48,-179.247"/>
<polygon fill="black" stroke="black" points="2022.07,-182.377 2030,-175.35 2019.42,-175.899 2022.07,-182.377"/>
</g>
<!-- PLC&#45;&gt;拒绝服务 -->
<g id="edge214" class="edge"><title>PLC&#45;&gt;拒绝服务</title>
<path fill="none" stroke="black" d="M1914.68,-226.032C1944.95,-215.74 1994.08,-196.115 2027.08,-181.485"/>
<polygon fill="black" stroke="black" points="2028.66,-184.61 2036.34,-177.312 2025.79,-178.227 2028.66,-184.61"/>
</g>
<!-- PLC&#45;&gt;拒绝服务 -->
<g id="edge215" class="edge"><title>PLC&#45;&gt;拒绝服务</title>
<path fill="none" stroke="black" d="M1915.86,-228.078C1949.91,-218.929 2002.38,-198.831 2035.18,-183.374"/>
<polygon fill="black" stroke="black" points="2036.82,-186.469 2044.28,-178.947 2033.76,-180.174 2036.82,-186.469"/>
</g>
<!-- PLC&#45;&gt;拒绝服务 -->
<g id="edge216" class="edge"><title>PLC&#45;&gt;拒绝服务</title>
<path fill="none" stroke="black" d="M1916.54,-229.529C1955.94,-221.419 2012.85,-200.688 2045.33,-184.504"/>
<polygon fill="black" stroke="black" points="2046.96,-187.602 2054.19,-179.861 2043.71,-181.402 2046.96,-187.602"/>
</g>
<!-- PLC&#45;&gt;拒绝服务 -->
<g id="edge217" class="edge"><title>PLC&#45;&gt;拒绝服务</title>
<path fill="none" stroke="black" d="M1916.69,-230.55C1962.89,-223.379 2025.09,-201.879 2056.89,-185.04"/>
<polygon fill="black" stroke="black" points="2058.79,-187.986 2065.73,-179.985 2055.32,-181.909 2058.79,-187.986"/>
</g>
<!-- PLC&#45;&gt;拒绝服务 -->
<g id="edge220" class="edge"><title>PLC&#45;&gt;拒绝服务</title>
<path fill="none" stroke="black" d="M1916.93,-231.199C1972.49,-224.624 2042.26,-201.378 2071.59,-183.839"/>
<polygon fill="black" stroke="black" points="2073.63,-186.682 2079.9,-178.142 2069.68,-180.907 2073.63,-186.682"/>
</g>
<!-- PLC&#45;&gt;拒绝服务 -->
<g id="edge221" class="edge"><title>PLC&#45;&gt;拒绝服务</title>
<path fill="none" stroke="black" d="M1917.17,-231.633C1984.97,-225.41 2064.57,-199.278 2087.87,-181.118"/>
<polygon fill="black" stroke="black" points="2090.58,-183.332 2094.37,-173.436 2085.24,-178.811 2090.58,-183.332"/>
</g>
<!-- PLC&#45;&gt;拒绝服务 -->
<g id="edge222" class="edge"><title>PLC&#45;&gt;拒绝服务</title>
<path fill="none" stroke="black" d="M1917.06,-231.956C1997.88,-226.153 2086.46,-197.457 2101.95,-178.96"/>
<polygon fill="black" stroke="black" points="2105.43,-178.513 2101.11,-168.838 2098.45,-179.094 2105.43,-178.513"/>
</g>
<!-- PLC&#45;&gt;拒绝服务 -->
<g id="edge223" class="edge"><title>PLC&#45;&gt;拒绝服务</title>
<path fill="none" stroke="black" d="M1917.26,-232.165C2023.62,-226.018 2132.61,-187.535 2112.16,-170.78"/>
<polygon fill="black" stroke="black" points="2113.41,-167.507 2102.85,-166.675 2110.59,-173.912 2113.41,-167.507"/>
</g>
<!-- PLC&#45;&gt;拒绝服务 -->
<g id="edge224" class="edge"><title>PLC&#45;&gt;拒绝服务</title>
<path fill="none" stroke="black" d="M1917.19,-232.33C2043.94,-226.379 2164.12,-182.472 2113.66,-167.777"/>
<polygon fill="black" stroke="black" points="2114.14,-164.298 2103.62,-165.605 2112.66,-171.14 2114.14,-164.298"/>
</g>
<!-- RTU&#45;&gt;其他 -->
<g id="edge227" class="edge"><title>RTU&#45;&gt;其他</title>
<path fill="none" stroke="black" d="M2462.41,-224.148C2416.04,-195.585 2348.1,-105.766 2266.17,-72 2150.02,-24.1354 1251.67,-19.4452 1052.79,-19.0297"/>
<polygon fill="black" stroke="black" points="1052.54,-15.5293 1042.53,-19.0108 1052.53,-22.5293 1052.54,-15.5293"/>
</g>
<!-- RTU&#45;&gt;其他 -->
<g id="edge228" class="edge"><title>RTU&#45;&gt;其他</title>
<path fill="none" stroke="black" d="M2466.28,-221.152C2429.58,-189.769 2363.42,-104.661 2284.17,-72 2166.87,-23.6615 1251.8,-19.3565 1052.81,-19.0186"/>
<polygon fill="black" stroke="black" points="1052.57,-15.5183 1042.57,-19.0037 1052.56,-22.5183 1052.57,-15.5183"/>
</g>
<!-- RTU&#45;&gt;其他 -->
<g id="edge229" class="edge"><title>RTU&#45;&gt;其他</title>
<path fill="none" stroke="black" d="M2472.3,-218.291C2443.73,-184.879 2379.13,-103.715 2302.17,-72 2183.78,-23.2139 1252.79,-19.2806 1052.85,-19.0102"/>
<polygon fill="black" stroke="black" points="1052.57,-15.5099 1042.56,-18.9987 1052.56,-22.5099 1052.57,-15.5099"/>
</g>
<!-- RTU&#45;&gt;其他 -->
<g id="edge230" class="edge"><title>RTU&#45;&gt;其他</title>
<path fill="none" stroke="black" d="M2480.35,-216.24C2459.16,-181.668 2395.59,-103.084 2320.17,-72 2200.7,-22.7682 1253.71,-19.2125 1052.58,-19.0036"/>
<polygon fill="black" stroke="black" points="1052.51,-15.5037 1042.51,-18.9954 1052.51,-22.5037 1052.51,-15.5037"/>
</g>
<!-- RTU&#45;&gt;其他 -->
<g id="edge231" class="edge"><title>RTU&#45;&gt;其他</title>
<path fill="none" stroke="black" d="M2490.05,-215.976C2476.83,-181.27 2413.4,-103.005 2338.17,-72 2217.81,-22.3994 1257.48,-19.1618 1052.92,-18.9995"/>
<polygon fill="black" stroke="black" points="1052.68,-15.4994 1042.68,-18.9935 1052.67,-22.4994 1052.68,-15.4994"/>
</g>
<!-- RTU&#45;&gt;其他 -->
<g id="edge232" class="edge"><title>RTU&#45;&gt;其他</title>
<path fill="none" stroke="black" d="M2500.12,-217.788C2497.09,-184.073 2432.74,-103.557 2356.17,-72 2234.85,-22.0058 1260.18,-19.1133 1052.61,-18.9962"/>
<polygon fill="black" stroke="black" points="1052.49,-15.4962 1042.49,-18.9924 1052.49,-22.4962 1052.49,-15.4962"/>
</g>
<!-- RTU&#45;&gt;拒绝服务 -->
<g id="edge226" class="edge"><title>RTU&#45;&gt;拒绝服务</title>
<path fill="none" stroke="black" d="M2459.15,-228.407C2388.22,-216.78 2200.8,-186.055 2110.37,-171.23"/>
<polygon fill="black" stroke="black" points="2110.8,-167.753 2100.36,-169.589 2109.66,-174.661 2110.8,-167.753"/>
</g>
</g>
</svg>
